<svg width="40" height="40" viewBox="0 0 40 40" fill="none" xmlns="http://www.w3.org/2000/svg">
<path d="M0 8C0 3.58172 3.58172 0 8 0H32C36.4183 0 40 3.58172 40 8V32C40 36.4183 36.4183 40 32 40H8C3.58172 40 0 36.4183 0 32V8Z" fill="#F8F8F8"/>
<path fill-rule="evenodd" clip-rule="evenodd" d="M20.455 11.4351C20.7309 11.317 21.0507 11.3749 21.2679 11.5821L29.5179 19.4571C29.6661 19.5987 29.75 19.7947 29.75 19.9997C29.75 20.2046 29.6661 20.4006 29.5179 20.5422L21.2679 28.4172C21.0507 28.6244 20.7309 28.6823 20.455 28.5642C20.179 28.4461 20 28.1748 20 27.8747V24.1355C17.7568 24.2026 16.2254 24.5777 15.0278 25.1968C13.7014 25.8826 12.7083 26.9059 11.5911 28.3363C11.394 28.5886 11.0586 28.688 10.7559 28.5838C10.4532 28.4796 10.25 28.1948 10.25 27.8747C10.25 25.0214 10.7189 22.0275 12.2959 19.7295C13.8095 17.5239 16.2706 16.063 20 15.8916V12.1247C20 11.8245 20.179 11.5532 20.455 11.4351ZM21.5 13.8774V16.6247C21.5 17.0389 21.1642 17.3747 20.75 17.3747C17.0074 17.3747 14.8212 18.7006 13.5327 20.5782C12.5588 21.9974 12.0532 23.796 11.8538 25.7366C12.5851 24.9929 13.3809 24.3597 14.3389 23.8644C15.9537 23.0295 17.9532 22.6247 20.75 22.6247C21.1642 22.6247 21.5 22.9604 21.5 23.3747V26.1219L27.9138 19.9997L21.5 13.8774Z" fill="#3D81E7"/>
</svg>
