<svg width="40" height="40" viewBox="0 0 40 40" fill="none" xmlns="http://www.w3.org/2000/svg">
<path d="M0 8C0 3.58172 3.58172 0 8 0H32C36.4183 0 40 3.58172 40 8V32C40 36.4183 36.4183 40 32 40H8C3.58172 40 0 36.4183 0 32V8Z" fill="#F8F8F8"/>
<path fill-rule="evenodd" clip-rule="evenodd" d="M12.875 14.7497C12.5766 14.7497 12.2905 14.8682 12.0795 15.0792C11.8685 15.2902 11.75 15.5763 11.75 15.8747V27.1247C11.75 27.4231 11.8685 27.7092 12.0795 27.9202C12.2905 28.1312 12.5766 28.2497 12.875 28.2497H24.125C24.2727 28.2497 24.419 28.2206 24.5555 28.1641C24.692 28.1075 24.816 28.0247 24.9205 27.9202C25.025 27.8157 25.1078 27.6917 25.1644 27.5552C25.2209 27.4187 25.25 27.2724 25.25 27.1247V18.4997C25.25 18.0855 25.5858 17.7497 26 17.7497C26.4142 17.7497 26.75 18.0855 26.75 18.4997V27.1247C26.75 27.4694 26.6821 27.8108 26.5502 28.1293C26.4183 28.4477 26.2249 28.7371 25.9812 28.9809C25.7374 29.2246 25.448 29.418 25.1295 29.5499C24.8111 29.6818 24.4697 29.7497 24.125 29.7497H12.875C12.1788 29.7497 11.5111 29.4731 11.0188 28.9809C10.5266 28.4886 10.25 27.8209 10.25 27.1247V15.8747C10.25 15.1785 10.5266 14.5108 11.0188 14.0186C11.5111 13.5263 12.1788 13.2497 12.875 13.2497H20.7256C21.1398 13.2497 21.4756 13.5855 21.4756 13.9997C21.4756 14.4139 21.1398 14.7497 20.7256 14.7497H12.875Z" fill="#FE9B0E"/>
<path d="M29.5597 10.4958C29.4912 10.4205 29.4081 10.3599 29.3156 10.3177C29.223 10.2754 29.1228 10.2524 29.0211 10.2499C28.9193 10.2475 28.8182 10.2657 28.7237 10.3034C28.6292 10.3412 28.5433 10.3977 28.4713 10.4696L27.8914 11.0466C27.8211 11.1169 27.7817 11.2122 27.7817 11.3117C27.7817 11.4111 27.8211 11.5064 27.8914 11.5767L28.423 12.1074C28.4578 12.1424 28.4992 12.1702 28.5448 12.1891C28.5905 12.2081 28.6394 12.2178 28.6887 12.2178C28.7381 12.2178 28.787 12.2081 28.8327 12.1891C28.8783 12.1702 28.9197 12.1424 28.9545 12.1074L29.5198 11.5449C29.8058 11.2594 29.8325 10.7944 29.5597 10.4958Z" fill="#FE9B0E"/>
<path d="M26.7191 12.2185L18.2572 20.6653C18.2059 20.7164 18.1686 20.7799 18.1489 20.8496L17.7575 22.0153C17.7481 22.047 17.7475 22.0805 17.7556 22.1125C17.7637 22.1445 17.7803 22.1737 17.8036 22.197C17.827 22.2204 17.8561 22.237 17.8881 22.2451C17.9201 22.2532 17.9537 22.2525 17.9853 22.2431L19.1502 21.8517C19.2198 21.8321 19.2833 21.7948 19.3344 21.7435L27.7812 13.2806C27.8594 13.2017 27.9032 13.095 27.9032 12.9839C27.9032 12.8728 27.8594 12.7662 27.7812 12.6872L27.3148 12.2185C27.2358 12.1396 27.1286 12.0953 27.017 12.0953C26.9053 12.0953 26.7981 12.1396 26.7191 12.2185Z" fill="#FE9B0E"/>
</svg>
