<svg width="40" height="40" viewBox="0 0 40 40" fill="none" xmlns="http://www.w3.org/2000/svg">
<path d="M0 8C0 3.58172 3.58172 0 8 0H32C36.4183 0 40 3.58172 40 8V32C40 36.4183 36.4183 40 32 40H8C3.58172 40 0 36.4183 0 32V8Z" fill="#F8F8F8"/>
<path fill-rule="evenodd" clip-rule="evenodd" d="M10.25 11.7499C13.2895 11.7638 15.4082 12.1459 16.8332 12.8267C18.183 13.4716 18.9205 14.3866 19.25 15.5967V27.2373C17.5445 25.978 14.9234 25.2513 10.264 25.2499C10.2576 25.2333 10.25 25.2042 10.25 25.1594V11.7499ZM20.75 27.2363C22.4587 25.9724 25.0788 25.2499 29.75 25.2499V11.7499C26.7105 11.7638 24.5918 12.1459 23.1668 12.8267C21.817 13.4716 21.0795 14.3866 20.75 15.5967V27.2363ZM20 13.6112C19.4307 12.7235 18.5986 12.0078 17.4798 11.4733C15.7597 10.6515 13.3794 10.2639 10.2534 10.2499L10.2528 10.2499C10.0553 10.2491 9.85951 10.2875 9.67685 10.3628C9.49418 10.438 9.32822 10.5487 9.18852 10.6884C9.04882 10.8281 8.93815 10.9941 8.86289 11.1767C8.78784 11.3589 8.74948 11.5541 8.75001 11.7511V25.1594C8.75001 25.5413 8.8683 25.9318 9.13028 26.2395C9.40172 26.5583 9.79761 26.7499 10.25 26.7499C16.1608 26.7499 18.2014 27.9507 19.4141 29.4681C19.5564 29.6462 19.7719 29.7498 19.9998 29.7499C20.2277 29.7499 20.4433 29.6464 20.5857 29.4684C21.8067 27.942 23.8388 26.7499 29.75 26.7499C30.1478 26.7499 30.5294 26.5919 30.8107 26.3105C31.092 26.0292 31.25 25.6477 31.25 25.2499V11.7509C31.2505 11.554 31.2122 11.3588 31.1371 11.1767C31.0619 10.9941 30.9512 10.8281 30.8115 10.6884C30.6718 10.5487 30.5058 10.438 30.3232 10.3628C30.1405 10.2875 29.9447 10.2491 29.7472 10.2499L29.7466 10.2499C26.6206 10.2639 24.2403 10.6515 22.5202 11.4733C21.4014 12.0078 20.5693 12.7235 20 13.6112Z" fill="#047857"/>
</svg>
