<svg width="40" height="40" viewBox="0 0 40 40" fill="none" xmlns="http://www.w3.org/2000/svg">
<path d="M0 8C0 3.58172 3.58172 0 8 0H32C36.4183 0 40 3.58172 40 8V32C40 36.4183 36.4183 40 32 40H8C3.58172 40 0 36.4183 0 32V8Z" fill="#F8F8F8"/>
<path fill-rule="evenodd" clip-rule="evenodd" d="M19.25 10C19.25 9.80109 19.329 9.61032 19.4697 9.46967C19.6103 9.32902 19.8011 9.25 20 9.25C25.937 9.25 30.75 14.063 30.75 20C30.75 25.937 25.937 30.75 20 30.75C14.063 30.75 9.25 25.937 9.25 20C9.25 19.8011 9.32902 19.6103 9.46967 19.4697C9.61032 19.329 9.80109 19.25 10 19.25C10.1989 19.25 10.3897 19.329 10.5303 19.4697C10.671 19.6103 10.75 19.8011 10.75 20C10.75 21.8295 11.2925 23.6179 12.3089 25.139C13.3253 26.6602 14.77 27.8458 16.4602 28.5459C18.1504 29.246 20.0103 29.4292 21.8046 29.0723C23.5989 28.7154 25.2471 27.8344 26.5407 26.5407C27.8344 25.2471 28.7154 23.5989 29.0723 21.8046C29.4292 20.0103 29.246 18.1504 28.5459 16.4602C27.8458 14.77 26.6602 13.3253 25.139 12.3089C23.6179 11.2925 21.8295 10.75 20 10.75C19.8011 10.75 19.6103 10.671 19.4697 10.5303C19.329 10.3897 19.25 10.1989 19.25 10ZM20 16.25C20.1989 16.25 20.3897 16.329 20.5303 16.4697C20.671 16.6103 20.75 16.8011 20.75 17V20.25H24C24.1989 20.25 24.3897 20.329 24.5303 20.4697C24.671 20.6103 24.75 20.8011 24.75 21C24.75 21.1989 24.671 21.3897 24.5303 21.5303C24.3897 21.671 24.1989 21.75 24 21.75H20C19.8011 21.75 19.6103 21.671 19.4697 21.5303C19.329 21.3897 19.25 21.1989 19.25 21V17C19.25 16.8011 19.329 16.6103 19.4697 16.4697C19.6103 16.329 19.8011 16.25 20 16.25ZM17.1 10.398C17.1355 10.4899 17.1525 10.5879 17.1501 10.6864C17.1477 10.785 17.1259 10.882 17.086 10.9721C17.0461 11.0622 16.9888 11.1435 16.9174 11.2114C16.846 11.2794 16.7619 11.3326 16.67 11.368C16.5286 11.4222 16.3886 11.4799 16.25 11.541C16.1594 11.5855 16.0607 11.6113 15.9599 11.6168C15.8591 11.6223 15.7582 11.6073 15.6633 11.5729C15.5684 11.5384 15.4815 11.4852 15.4076 11.4163C15.3338 11.3475 15.2746 11.2644 15.2337 11.1721C15.1927 11.0798 15.1708 10.9802 15.1693 10.8793C15.1678 10.7783 15.1866 10.6781 15.2248 10.5846C15.2629 10.4912 15.3195 10.4063 15.3912 10.3353C15.4629 10.2642 15.5482 10.2083 15.642 10.171C15.802 10.099 15.965 10.031 16.13 9.968C16.2219 9.93251 16.3199 9.91548 16.4184 9.91788C16.517 9.92028 16.614 9.94207 16.7041 9.98201C16.7942 10.0219 16.8755 10.0792 16.9434 10.1506C17.0114 10.222 17.0646 10.3061 17.1 10.398ZM13.648 12.24C13.7851 12.384 13.8593 12.5766 13.8544 12.7754C13.8496 12.9742 13.766 13.1629 13.622 13.3C13.5124 13.4047 13.4054 13.5121 13.301 13.622C13.1638 13.7661 12.9749 13.8499 12.7759 13.8547C12.5769 13.8596 12.3841 13.7852 12.24 13.648C12.0959 13.5108 12.0121 13.3219 12.0073 13.1229C12.0024 12.9239 12.0768 12.7311 12.214 12.587C12.336 12.46 12.46 12.336 12.587 12.214C12.731 12.0769 12.9236 12.0027 13.1224 12.0076C13.3212 12.0124 13.5108 12.096 13.648 12.24ZM11.16 15.261C11.25 15.301 11.3313 15.3583 11.3992 15.4297C11.467 15.5011 11.5202 15.5851 11.5556 15.6771C11.5909 15.769 11.6079 15.867 11.6054 15.9655C11.6029 16.064 11.581 16.161 11.541 16.251C11.48 16.389 11.421 16.529 11.367 16.67C11.2923 16.8511 11.1496 16.9958 10.9696 17.073C10.7896 17.1503 10.5864 17.1541 10.4037 17.0835C10.2209 17.013 10.073 16.8737 9.99156 16.6955C9.91015 16.5173 9.90169 16.3144 9.968 16.13C10.031 15.965 10.098 15.803 10.17 15.642C10.21 15.552 10.2673 15.4707 10.3387 15.4028C10.4101 15.335 10.4941 15.2818 10.5861 15.2464C10.678 15.2111 10.776 15.1941 10.8745 15.1966C10.973 15.1991 11.07 15.221 11.16 15.261Z" fill="#FE9B0E"/>
</svg>
