<svg width="40" height="40" viewBox="0 0 40 40" fill="none" xmlns="http://www.w3.org/2000/svg">
<path d="M0 8C0 3.58172 3.58172 0 8 0H32C36.4183 0 40 3.58172 40 8V32C40 36.4183 36.4183 40 32 40H8C3.58172 40 0 36.4183 0 32V8Z" fill="#F8F8F8"/>
<path fill-rule="evenodd" clip-rule="evenodd" d="M10.25 19.625C10.25 14.4478 14.4478 10.25 19.625 10.25C24.8022 10.25 29 14.4478 29 19.625C29 24.8022 24.8022 29 19.625 29C14.4478 29 10.25 24.8022 10.25 19.625ZM19.625 11.75C15.2762 11.75 11.75 15.2762 11.75 19.625C11.75 23.9738 15.2762 27.5 19.625 27.5C23.9738 27.5 27.5 23.9738 27.5 19.625C27.5 15.2762 23.9738 11.75 19.625 11.75ZM17.5625 18.3125C17.5625 17.8983 17.8983 17.5625 18.3125 17.5625H19.8125C20.2267 17.5625 20.5625 17.8983 20.5625 18.3125V23.1875H21.875C22.2892 23.1875 22.625 23.5233 22.625 23.9375C22.625 24.3517 22.2892 24.6875 21.875 24.6875H17.75C17.3358 24.6875 17 24.3517 17 23.9375C17 23.5233 17.3358 23.1875 17.75 23.1875H19.0625V19.0625H18.3125C17.8983 19.0625 17.5625 18.7267 17.5625 18.3125Z" fill="#EC2D30"/>
<path d="M19.625 14.0938C19.384 14.0938 19.1483 14.1652 18.9479 14.2991C18.7475 14.4331 18.5913 14.6234 18.499 14.8461C18.4068 15.0688 18.3826 15.3139 18.4297 15.5503C18.4767 15.7867 18.5928 16.0038 18.7632 16.1743C18.9337 16.3447 19.1508 16.4608 19.3872 16.5078C19.6236 16.5549 19.8687 16.5307 20.0914 16.4385C20.3141 16.3462 20.5044 16.19 20.6384 15.9896C20.7723 15.7892 20.8438 15.5535 20.8438 15.3125C20.8438 14.9893 20.7153 14.6793 20.4868 14.4507C20.2582 14.2222 19.9482 14.0938 19.625 14.0938Z" fill="#EC2D30"/>
</svg>
