<svg width="40" height="40" viewBox="0 0 40 40" fill="none" xmlns="http://www.w3.org/2000/svg">
<path d="M0 8C0 3.58172 3.58172 0 8 0H32C36.4183 0 40 3.58172 40 8V32C40 36.4183 36.4183 40 32 40H8C3.58172 40 0 36.4183 0 32V8Z" fill="#F8F8F8"/>
<path fill-rule="evenodd" clip-rule="evenodd" d="M27.9939 13.4353C28.3056 13.7081 28.3372 14.1819 28.0644 14.4936L17.5644 26.4936C17.4277 26.6499 17.2324 26.7424 17.025 26.7494C16.8175 26.7563 16.6164 26.6769 16.4697 26.5301L11.9697 22.0301C11.6768 21.7372 11.6768 21.2623 11.9697 20.9694C12.2626 20.6765 12.7374 20.6765 13.0303 20.9694L16.9635 24.9026L26.9356 13.5059C27.2083 13.1942 27.6822 13.1626 27.9939 13.4353Z" fill="#07BB4F"/>
</svg>
