<svg width="40" height="40" viewBox="0 0 40 40" fill="none" xmlns="http://www.w3.org/2000/svg">
<path d="M0 8C0 3.58172 3.58172 0 8 0H32C36.4183 0 40 3.58172 40 8V32C40 36.4183 36.4183 40 32 40H8C3.58172 40 0 36.4183 0 32V8Z" fill="#F8F8F8"/>
<path fill-rule="evenodd" clip-rule="evenodd" d="M23.583 9.41995C24.895 9.86149 25.7501 11.096 25.7501 12.7145C25.7501 13.7321 25.1716 14.6687 24.527 15.4159C23.8644 16.184 23.0257 16.8733 22.2921 17.4081C22.2607 17.431 22.2295 17.4537 22.1986 17.4763C21.4866 17.9966 20.8992 18.4258 20.0001 18.4258C19.1009 18.4258 18.5135 17.9966 17.8015 17.4763C17.7706 17.4537 17.7394 17.431 17.708 17.408C16.9744 16.8733 16.1357 16.184 15.4731 15.4159C14.8285 14.6687 14.2501 13.7321 14.2501 12.7146C14.2501 11.096 15.1051 9.8615 16.4171 9.41996C17.5362 9.04335 18.8388 9.29193 20.0001 10.1372C21.1613 9.29193 22.4639 9.04335 23.583 9.41995ZM23.1046 10.8416C22.4525 10.6222 21.4802 10.7641 20.5076 11.6581C20.2206 11.9219 19.7795 11.9219 19.4925 11.6581C18.5199 10.7641 17.5476 10.6222 16.8956 10.8416C16.2701 11.0521 15.7501 11.6559 15.7501 12.7146C15.7501 13.1821 16.0346 13.7703 16.6089 14.4361C17.1652 15.0809 17.9014 15.6928 18.5916 16.1959C19.4347 16.8105 19.6351 16.9258 20.0001 16.9258C20.365 16.9258 20.5654 16.8105 21.4085 16.1959C22.0987 15.6928 22.8349 15.0809 23.3912 14.4361C23.9655 13.7703 24.2501 13.1821 24.2501 12.7145C24.2501 11.6559 23.73 11.0521 23.1046 10.8416ZM16.684 22.448C18.5498 22.0865 20.5471 22.1676 22.1633 23.1316C22.3903 23.267 22.6031 23.4357 22.7888 23.6442C23.1646 24.0664 23.3588 24.5911 23.3679 25.1172C23.5592 24.9938 23.7508 24.8568 23.9454 24.7098L25.7526 23.3446C26.6572 22.6613 27.9718 22.6612 28.8765 23.3443C29.7125 23.9755 30.0457 25.1083 29.4473 26.0675C29.022 26.7493 28.3815 27.6922 27.7296 28.296C27.0707 28.9063 26.1329 29.4194 25.4236 29.7618C24.5621 30.1776 23.6316 30.4075 22.7269 30.5539C20.8777 30.8532 18.9535 30.8074 17.1251 30.4308C16.1906 30.2382 15.2196 30.1382 14.26 30.1382H12.0001C11.5858 30.1382 11.2501 29.8024 11.2501 29.3882C11.2501 28.974 11.5858 28.6382 12.0001 28.6382H14.26C15.3221 28.6382 16.3945 28.7487 17.4277 28.9616C19.0798 29.302 20.8202 29.343 22.4872 29.0732C23.3161 28.939 24.0901 28.7398 24.7715 28.4109C25.4549 28.081 26.2233 27.6466 26.7104 27.1955C27.2029 26.7393 27.7541 25.9477 28.1747 25.2736C28.3016 25.0701 28.284 24.7765 27.9727 24.5414C27.6029 24.2622 27.0264 24.2623 26.6567 24.5415L24.8496 25.9067C24.1281 26.4516 23.2402 27.0347 22.1388 27.2103C22.0276 27.2281 21.9119 27.2443 21.7918 27.2586C21.7345 27.2689 21.6749 27.2758 21.6133 27.2781C21.051 27.334 20.3998 27.347 19.6813 27.2791C19.2689 27.2402 18.9662 26.8743 19.0051 26.4619C19.0441 26.0495 19.41 25.7468 19.8223 25.7858C20.4498 25.845 21.0127 25.8319 21.4903 25.7829C21.5 25.7819 21.5096 25.7809 21.5192 25.7799C21.5392 25.7683 21.5697 25.7472 21.6096 25.7122C21.9291 25.4334 21.9576 24.9665 21.6684 24.6416C21.5951 24.5593 21.5049 24.4854 21.3949 24.4198C20.2138 23.7153 18.6363 23.5976 16.9693 23.9206C15.3117 24.2417 13.665 24.9815 12.4339 25.8545C12.096 26.0941 11.6279 26.0144 11.3883 25.6766C11.1487 25.3387 11.2283 24.8706 11.5662 24.6309C12.9646 23.6393 14.8087 22.8113 16.684 22.448Z" fill="#047857"/>
</svg>
