<svg width="32" height="32" viewBox="0 0 32 32" fill="none" xmlns="http://www.w3.org/2000/svg">
<path fill-rule="evenodd" clip-rule="evenodd" d="M1 6C1 4.89543 1.89543 4 3 4H29C30.1046 4 31 4.89543 31 6V20C31 21.1046 30.1046 22 29 22H3C1.89543 22 1 21.1046 1 20V6ZM3 10.9161V15.0839C3.44363 15.1589 3.87846 15.2837 4.2961 15.4567C5.02405 15.7583 5.68549 16.2002 6.24264 16.7574C6.79979 17.3145 7.24175 17.9759 7.54328 18.7039C7.71627 19.1215 7.84109 19.5564 7.91608 20H24.0839C24.2902 18.7797 24.8707 17.6441 25.7574 16.7574C26.6441 15.8707 27.7797 15.2902 29 15.0839V10.9161C27.7797 10.7098 26.6441 10.1293 25.7574 9.24264C24.8707 8.35595 24.2902 7.22031 24.0839 6H7.91608C7.84109 6.44363 7.71627 6.87847 7.54328 7.2961C7.24175 8.02405 6.79979 8.68549 6.24264 9.24264C5.68549 9.79979 5.02405 10.2417 4.2961 10.5433C3.87846 10.7163 3.44363 10.8411 3 10.9161ZM5.87298 6C5.82639 6.18044 5.76715 6.3578 5.69552 6.53073C5.4945 7.01604 5.19986 7.45699 4.82843 7.82843C4.45699 8.19986 4.01604 8.4945 3.53073 8.69552C3.3578 8.76715 3.18044 8.8264 3 8.87298V6H5.87298ZM26.127 6C26.3042 6.68603 26.662 7.31889 27.1716 7.82843C27.6811 8.33797 28.314 8.69584 29 8.87299V6H26.127ZM29 17.127C28.314 17.3042 27.6811 17.662 27.1716 18.1716C26.662 18.6811 26.3042 19.314 26.127 20H29V17.127ZM5.87298 20C5.82639 19.8196 5.76715 19.6422 5.69552 19.4693C5.4945 18.984 5.19986 18.543 4.82843 18.1716C4.45699 17.8001 4.01604 17.5055 3.53073 17.3045C3.3578 17.2329 3.18044 17.1736 3 17.127V20H5.87298ZM16 9C13.7909 9 12 10.7909 12 13C12 15.2091 13.7909 17 16 17C18.2091 17 20 15.2091 20 13C20 10.7909 18.2091 9 16 9ZM10 13C10 9.68629 12.6863 7 16 7C19.3137 7 22 9.68629 22 13C22 16.3137 19.3137 19 16 19C12.6863 19 10 16.3137 10 13ZM3 24C3 23.4477 3.44772 23 4 23H28C28.5523 23 29 23.4477 29 24C29 24.5523 28.5523 25 28 25H4C3.44772 25 3 24.5523 3 24ZM5 27C5 26.4477 5.44772 26 6 26H26C26.5523 26 27 26.4477 27 27C27 27.5523 26.5523 28 26 28H6C5.44772 28 5 27.5523 5 27Z" fill="#9CA5AC"/>
</svg>
