<svg width="12" height="12" viewBox="0 0 12 12" fill="none" xmlns="http://www.w3.org/2000/svg">
<mask id="mask0_9041_30621" style="mask-type:alpha" maskUnits="userSpaceOnUse" x="0" y="0" width="12" height="12">
<path fill-rule="evenodd" clip-rule="evenodd" d="M0.96967 0.969651C1.26256 0.676763 1.73744 0.676763 2.03033 0.969651L11.0303 9.96951C11.3232 10.2624 11.3232 10.7373 11.0303 11.0302C10.7374 11.323 10.2626 11.323 9.96967 11.0302L0.96967 2.03029C0.676777 1.73741 0.676777 1.26254 0.96967 0.969651Z" fill="#006FFD"/>
<path fill-rule="evenodd" clip-rule="evenodd" d="M11.0303 0.969651C10.7374 0.676763 10.2626 0.676763 9.96967 0.969651L0.96967 9.96951C0.676777 10.2624 0.676777 10.7373 0.96967 11.0302C1.26256 11.323 1.73744 11.323 2.03033 11.0302L11.0303 2.03029C11.3232 1.73741 11.3232 1.26254 11.0303 0.969651Z" fill="#006FFD"/>
</mask>
<g mask="url(#mask0_9041_30621)">
<rect width="12" height="11.9998" fill="#71727A"/>
</g>
</svg>
