<svg width="24" height="25" viewBox="0 0 24 25" fill="none" xmlns="http://www.w3.org/2000/svg">
<path fill-rule="evenodd" clip-rule="evenodd" d="M4.875 5.75C4.57663 5.75 4.29048 5.86853 4.0795 6.0795C3.86853 6.29048 3.75 6.57663 3.75 6.875V18.125C3.75 18.4234 3.86853 18.7095 4.0795 18.9205C4.29048 19.1315 4.57663 19.25 4.875 19.25H12.375C12.6734 19.25 12.9595 19.1315 13.1705 18.9205C13.3815 18.7095 13.5 18.4234 13.5 18.125V16.25C13.5 15.8358 13.8358 15.5 14.25 15.5C14.6642 15.5 15 15.8358 15 16.25V18.125C15 18.8212 14.7234 19.4889 14.2312 19.9812C13.7389 20.4734 13.0712 20.75 12.375 20.75H4.875C4.17881 20.75 3.51113 20.4734 3.01884 19.9812C2.52656 19.4889 2.25 18.8212 2.25 18.125V6.875C2.25 6.17881 2.52656 5.51113 3.01884 5.01884C3.51113 4.52656 4.17881 4.25 4.875 4.25H12C12.7042 4.25 13.4264 4.52832 13.9759 4.95883C14.5225 5.38709 15 6.05241 15 6.875V8.75C15 9.16421 14.6642 9.5 14.25 9.5C13.8358 9.5 13.5 9.16421 13.5 8.75V6.875C13.5 6.66213 13.3703 6.38994 13.0507 6.13957C12.7341 5.89144 12.3312 5.75 12 5.75H4.875ZM16.7197 8.21967C17.0126 7.92678 17.4874 7.92678 17.7803 8.21967L21.5303 11.9697C21.8232 12.2626 21.8232 12.7374 21.5303 13.0303L17.7803 16.7803C17.4874 17.0732 17.0126 17.0732 16.7197 16.7803C16.4268 16.4874 16.4268 16.0126 16.7197 15.7197L19.1893 13.25H8.25C7.83579 13.25 7.5 12.9142 7.5 12.5C7.5 12.0858 7.83579 11.75 8.25 11.75H19.1893L16.7197 9.28033C16.4268 8.98744 16.4268 8.51256 16.7197 8.21967Z" fill="#EC2D30"/>
</svg>
