<svg width="24" height="25" viewBox="0 0 24 25" fill="none" xmlns="http://www.w3.org/2000/svg">
<path d="M9.13157 23.75C9.08 23.75 9.02844 23.7453 8.98157 23.7359C8.75657 23.6984 8.55969 23.5719 8.42844 23.3844C8.29719 23.1969 8.24563 22.9672 8.28782 22.7422L9.60032 15.5H4.50032C4.20969 15.5 3.94719 15.3359 3.82532 15.0734C3.69875 14.8109 3.73625 14.5016 3.91907 14.2766L14.1894 1.58281C14.3534 1.37656 14.6019 1.25 14.8691 1.25C14.9019 1.25 14.9441 1.25 14.9769 1.25469C15.2066 1.28281 15.4081 1.4 15.5534 1.58281C15.6941 1.76562 15.7597 1.99063 15.7316 2.22031C15.7316 2.23438 15.7269 2.24844 15.7269 2.2625L14.4003 9.5H19.5003C19.7909 9.5 20.0534 9.66406 20.1753 9.92656C20.3019 10.1891 20.2644 10.4984 20.0816 10.7234L9.81125 23.4219C9.64719 23.6281 9.39407 23.75 9.13157 23.75ZM6.07063 14H10.5003C10.7206 14 10.9316 14.0984 11.0769 14.2672C11.2175 14.4359 11.2784 14.6609 11.2409 14.8812L10.2097 20.5391L17.93 11H13.5003C13.28 11 13.0691 10.9016 12.9238 10.7281C12.7831 10.5594 12.7222 10.3297 12.7597 10.1141L13.7956 4.45156L6.07063 14Z" fill="#047857"/>
</svg>
