<svg width="24" height="24" viewBox="0 0 24 24" fill="none" xmlns="http://www.w3.org/2000/svg">
<path d="M22.4391 20.7047L17.9391 10.2047C17.8219 9.92812 17.55 9.75 17.25 9.75C16.95 9.75 16.6781 9.92812 16.5609 10.2047L12.0609 20.7047C11.8969 21.0844 12.075 21.525 12.4547 21.6891C12.8344 21.8531 13.275 21.675 13.4391 21.2953L14.5312 18.75H19.9688L21.0609 21.2953C21.1828 21.5812 21.4594 21.75 21.75 21.75C21.8484 21.75 21.9469 21.7313 22.0453 21.6891C22.425 21.525 22.6031 21.0844 22.4391 20.7047ZM15.1734 17.25L17.25 12.4031L19.3266 17.25H15.1734Z" fill="#047857"/>
<path d="M12.5953 16.2094C12.8484 15.8812 12.7875 15.4125 12.4594 15.1594C12.4453 15.15 11.4703 14.3859 10.2516 13.0266C12.2719 10.3687 13.3641 7.26094 13.7484 6.00469H15.75C16.1625 6.00469 16.5 5.66719 16.5 5.25469C16.5 4.84219 16.1625 4.50469 15.75 4.50469H9.75V3C9.75 2.5875 9.4125 2.25 9 2.25C8.5875 2.25 8.25 2.5875 8.25 3V4.5H2.25C1.8375 4.5 1.5 4.8375 1.5 5.25C1.5 5.6625 1.8375 6 2.25 6H12.1734C11.7375 7.29844 10.8 9.71719 9.26719 11.8359C9.25312 11.8172 9.23437 11.7984 9.22031 11.775C7.55625 9.61406 6.675 7.92187 6.67031 7.90781C6.48281 7.5375 6.02813 7.39219 5.6625 7.58438C5.29219 7.77188 5.14688 8.22656 5.33906 8.59219C5.37656 8.66719 6.28125 10.4156 8.03906 12.6937C8.12813 12.8109 8.22188 12.9281 8.31094 13.0406C5.85469 15.8719 3.40313 17.3437 3.375 17.3578C3.01875 17.5687 2.90156 18.0281 3.1125 18.3844C3.25313 18.6234 3.50156 18.7547 3.75937 18.7547C3.89062 18.7547 4.02188 18.7219 4.13906 18.6516C4.25156 18.5859 6.73125 17.1047 9.29531 14.1984C10.5281 15.5578 11.4984 16.3078 11.55 16.35C11.6859 16.4531 11.8453 16.5047 12.0094 16.5047C12.225 16.5 12.4453 16.4016 12.5953 16.2094Z" fill="#047857"/>
</svg>
