<svg width="108" height="32" viewBox="0 0 108 32" fill="none" xmlns="http://www.w3.org/2000/svg">
<path d="M17.764 4.94976L17.764 0.030117C26.5869 0.0301178 33.7393 7.18247 33.7392 16.0053C33.7392 24.8282 26.5869 31.9806 17.764 31.9806C24.3812 31.9806 29.7454 26.6163 29.7454 19.9991C29.7454 13.382 26.6822 4.94976 17.764 4.94976Z" fill="url(#paint0_linear_6652_47105)"/>
<path d="M5.69739 16.0053C7.34218 11.3518 10.2463 4.94976 17.764 4.94976L17.764 0.030117C11.1469 0.0301165 5.01563 5.39438 5.01563 12.0115C5.01562 13.4119 5.25587 14.7562 5.69739 16.0053Z" fill="url(#paint1_linear_6652_47105)"/>
<path d="M15.9752 26.2939L15.9752 31.9805C7.15236 31.9805 8.25467e-06 24.8282 1.09333e-05 16.0053C1.17047e-05 7.18243 7.15236 0.0300846 15.9752 0.0300854C9.35808 0.0300848 3.99382 5.39434 3.99381 12.0115C3.99381 18.6286 7.0571 26.2939 15.9752 26.2939Z" fill="url(#paint2_linear_6652_47105)"/>
<path d="M28.0419 16.0053C26.3971 20.6589 23.493 26.2939 15.9752 26.2939L15.9752 31.9805C22.5924 31.9805 28.7236 26.6163 28.7236 19.9991C28.7236 18.5987 28.4834 17.2545 28.0419 16.0053Z" fill="url(#paint3_linear_6652_47105)"/>
<path d="M12.0076 10.6273C11.863 9.88785 12.4964 9.228 13.2398 9.34375L18.8786 10.2216C19.3383 10.2932 19.7005 10.6506 19.7788 11.1099L21.6296 21.9628C21.7318 22.562 21.3227 23.1294 20.7224 23.2209L15.6779 23.9905C15.1042 24.0781 14.5642 23.6978 14.4527 23.1277L12.0076 10.6273Z" fill="#19C192"/>
<path d="M12.4065 9.82489C12.2519 9.09434 12.8633 8.42787 13.6033 8.5203L19.0825 9.20467C19.5604 9.26435 19.941 9.63267 20.0169 10.1089L21.8495 21.6056C21.9452 22.206 21.5298 22.7689 20.9285 22.854L16.3323 23.504C15.7686 23.5837 15.2402 23.2134 15.1222 22.6561L12.4065 9.82489Z" fill="url(#paint4_linear_6652_47105)"/>
<path d="M14.4379 13.4166C14.2994 13.1778 14.4825 12.8803 14.7579 12.8967L19.5342 13.1819C19.6255 13.1873 19.7059 13.2441 19.7417 13.3285C19.81 13.4895 19.69 13.6679 19.5153 13.6651L14.7309 13.5887C14.6098 13.5867 14.4986 13.5215 14.4379 13.4166Z" fill="white"/>
<path d="M14.7778 14.5914C14.6639 14.4244 14.7896 14.1985 14.9914 14.2075L18.8452 14.3795C18.8883 14.3814 18.9284 14.4024 18.9546 14.4368C19.0274 14.5326 18.9596 14.6707 18.8393 14.6715L14.9815 14.6982C14.9001 14.6987 14.8237 14.6587 14.7778 14.5914Z" fill="white"/>
<path d="M15.1879 15.593C15.0703 15.4284 15.1912 15.1996 15.3934 15.2041L19.2497 15.2907C19.293 15.2916 19.3335 15.3118 19.3605 15.3457C19.4354 15.4399 19.3705 15.5796 19.2502 15.5831L15.3943 15.6955C15.3127 15.6978 15.2353 15.6594 15.1879 15.593Z" fill="white"/>
<path d="M16.5182 21.8225C16.1878 21.0998 16.1678 20.3001 16.308 19.527C16.3761 19.1507 16.4742 18.7745 16.6172 18.4198C16.7268 18.1475 16.9919 17.535 17.3332 17.4919C17.9747 17.4115 17.4509 19.2621 17.3697 19.5682C17.1755 20.3015 16.8889 21.0062 16.5079 21.6623C16.5603 21.6845 16.6122 21.7068 16.6645 21.7285C16.7892 21.4861 16.9348 21.2574 17.1072 21.0465C17.1854 20.9508 17.2675 20.8571 17.3563 20.7711C17.4274 20.7016 17.5597 20.5581 17.6195 20.6649C17.6732 20.7614 17.5905 21.2 17.5851 21.2667C17.5712 21.4336 17.5554 21.6002 17.5392 21.7675C17.5305 21.8594 17.6478 21.9134 17.6977 21.8249C17.8717 21.5165 18.059 21.2185 18.2618 20.9284C18.2097 20.9238 18.1577 20.9193 18.1055 20.9143C18.177 21.0955 18.2291 21.2773 18.2657 21.469C18.282 21.5562 18.4135 21.5393 18.4298 21.4615C18.5086 21.092 18.6664 20.7361 18.8259 20.395C18.7726 20.383 18.7189 20.3712 18.6657 20.3592C18.6951 20.6618 18.7446 20.9839 18.8874 21.255C18.9213 21.3191 19.0319 21.3003 19.0426 21.2285C19.0815 20.966 19.2308 20.7148 19.375 20.4946C19.3227 20.4896 19.2707 20.4851 19.2184 20.48C19.2661 20.6477 19.313 20.815 19.3606 20.9827C19.3861 21.0729 19.4986 21.0497 19.5252 20.9762C19.6021 20.7638 19.679 20.5515 19.7557 20.3386C19.7008 20.3407 19.646 20.3429 19.5914 20.3443C19.6456 20.4933 19.7307 20.699 19.8802 20.7748C20.1406 20.9071 20.4685 20.5419 20.6552 20.4086C20.7444 20.3446 20.6473 20.2045 20.5581 20.2686C20.4347 20.357 20.0925 20.7065 19.9214 20.5923C19.8417 20.539 19.7848 20.3788 19.7545 20.2949C19.7238 20.2099 19.6185 20.2222 19.5903 20.3006C19.5136 20.5135 19.4367 20.7259 19.36 20.9388L19.5245 20.9323C19.4769 20.7647 19.4298 20.5968 19.3823 20.4297C19.3606 20.3533 19.264 20.3566 19.2258 20.4151C19.0741 20.6482 18.9193 20.9132 18.8779 21.1921C18.9294 21.1833 18.9815 21.1743 19.033 21.1655C18.9042 20.9212 18.8631 20.6245 18.8366 20.3519C18.8291 20.2728 18.714 20.2351 18.6764 20.3161C18.5111 20.6701 18.3459 21.0425 18.2648 21.4259C18.3194 21.4232 18.3742 21.421 18.4289 21.4184C18.3925 21.2271 18.3401 21.0448 18.2686 20.8636C18.2393 20.7897 18.1545 20.7888 18.1123 20.8495C17.9101 21.1394 17.7224 21.4382 17.5483 21.7461C17.6012 21.7649 17.6541 21.7838 17.7068 21.8034C17.7328 21.5364 17.758 21.269 17.7757 21.0011C17.7846 20.8717 17.842 20.6323 17.752 20.5188C17.4058 20.081 16.6177 21.4525 16.5089 21.6632C16.4578 21.7625 16.6116 21.8218 16.6654 21.7293C17.1351 20.9204 17.4554 20.0387 17.6501 19.1249C17.7312 18.7446 18.1539 17.3414 17.3805 17.3198C17.0623 17.3111 16.8247 17.6756 16.6804 17.9118C16.4629 18.2669 16.3359 18.6702 16.234 19.0719C15.9974 20.0047 15.9594 20.9999 16.3625 21.8916C16.4079 21.9915 16.5638 21.9229 16.5182 21.8225Z" fill="white"/>
<path d="M45.8825 15.078C45.0726 15.078 44.2916 14.9695 43.5395 14.7525C42.7874 14.5501 42.1727 14.2536 41.6954 13.8631C41.2181 13.4581 40.9795 12.9953 40.9795 12.4746V9.93627H41.5869C41.8039 11.4115 42.2595 12.4746 42.9537 13.1254C43.648 13.7763 44.617 14.1017 45.8608 14.1017C46.6997 14.1017 47.365 13.9209 47.8568 13.5593C48.3485 13.1977 48.5944 12.6771 48.5944 11.9973C48.5944 11.4188 48.4136 10.927 48.052 10.522C47.6905 10.1171 47.1264 9.67593 46.3598 9.19865L43.6914 7.59322C42.7223 7.02915 42.0281 6.44339 41.6086 5.83593C41.2037 5.22848 41.0012 4.51977 41.0012 3.70983C41.0012 2.56723 41.4351 1.66328 42.3029 0.997966C43.1851 0.332655 44.3711 0 45.8608 0C46.6708 0 47.4518 0.108474 48.2039 0.325423C48.956 0.527909 49.5707 0.831638 50.048 1.23661C50.5253 1.62712 50.7639 2.08271 50.7639 2.60339V5.1417H50.1564C49.9106 3.66644 49.455 2.60339 48.7897 1.95254C48.1244 1.3017 47.2276 0.976272 46.0995 0.976272C45.3185 0.976272 44.6966 1.16429 44.2337 1.54034C43.7854 1.91638 43.5612 2.42983 43.5612 3.08068C43.5612 3.64475 43.7347 4.1148 44.0819 4.49085C44.4434 4.85243 45.022 5.26463 45.8175 5.72746L48.4859 7.31119C49.4984 7.90418 50.2215 8.48271 50.6554 9.04678C51.1038 9.59639 51.328 10.2617 51.328 11.0427C51.328 12.301 50.8507 13.2918 49.8961 14.0149C48.956 14.7236 47.6181 15.078 45.8825 15.078Z" fill="#222222"/>
<path d="M54.1819 3.21085C54.1819 2.47322 54.0806 1.93085 53.8781 1.58373C53.6757 1.22215 53.2707 1.04136 52.6632 1.04136H52.4463V0.390509H55.0497C55.5703 0.390509 55.9681 0.477288 56.2429 0.650848C56.5177 0.824407 56.7129 1.11367 56.8286 1.51864C56.9444 1.90915 57.0022 2.47322 57.0022 3.21085V6.79051H62.8598V0.390509H65.6802V11.8888C65.6802 12.6264 65.7814 13.176 65.9839 13.5376C66.1864 13.8847 66.5914 14.0583 67.1988 14.0583H67.4158V14.7092H64.8124C64.2917 14.7092 63.894 14.6296 63.6192 14.4705C63.3444 14.297 63.1491 14.0149 63.0334 13.6244C62.9177 13.2194 62.8598 12.6409 62.8598 11.8888V7.76678H57.0022V14.7092H54.1819V3.21085Z" fill="#222222"/>
<path d="M81.0631 14.7959C80.1519 14.7959 79.3275 14.6079 78.5898 14.2319C77.8522 13.8414 77.252 13.0893 76.7892 11.9756L76.2902 10.7607H70.5193L68.7403 14.7092H67.6122L74.0122 0.390509H74.9885L79.8481 11.9756C80.3977 13.3207 81.1498 14.0438 82.1044 14.1451V14.6875C81.8441 14.7598 81.497 14.7959 81.0631 14.7959ZM70.9749 9.78441H75.878L73.4915 4.12203L70.9749 9.78441Z" fill="#222222"/>
<path d="M93.6344 14.9261C92.8389 14.9261 92.1158 14.6947 91.4649 14.2319C90.8141 13.7546 90.1343 12.9374 89.4256 11.7803L87.2561 8.15729H86.3883V14.7092H83.5463V3.21085C83.5463 2.47322 83.445 1.93085 83.2425 1.58373C83.0401 1.22215 82.6351 1.04136 82.0276 1.04136H81.8107V0.390509H87.7985C89.3027 0.390509 90.655 0.665311 91.8554 1.21492C93.0559 1.76452 93.6561 2.82034 93.6561 4.38237C93.6561 6.19028 92.4846 7.39074 90.1415 7.98373L92.4195 11.7803C93.2728 13.2122 94.1696 14.0077 95.1097 14.1668V14.7092C94.994 14.767 94.7842 14.8176 94.4805 14.861C94.1768 14.9044 93.8948 14.9261 93.6344 14.9261ZM87.69 7.28949C88.5 7.28949 89.187 7.05085 89.751 6.57356C90.3296 6.08181 90.6188 5.31526 90.6188 4.2739C90.6188 3.24701 90.3368 2.48768 89.7727 1.99593C89.2086 1.50418 88.5506 1.25831 87.7985 1.25831C87.379 1.25831 87.0536 1.28723 86.8222 1.34508L86.3883 1.41017V7.28949H87.69Z" fill="#222222"/>
<path d="M99.8871 1.36678H98.3468C97.5368 1.36678 96.9149 1.56927 96.481 1.97424C96.0616 2.37921 95.8519 3.04452 95.8519 3.97017H95.201V2.1261C95.201 0.96904 95.8157 0.390509 97.0451 0.390509H107.242V1.36678H102.707V14.7092H99.8871V1.36678Z" fill="#222222"/>
<path d="M47.3144 32C46.8034 32 46.3839 31.8506 46.0561 31.5516C45.7283 31.2431 45.4004 30.6935 45.0726 29.9028L44.0602 27.4441H43.0477L42.2812 31.8554H40.9795L41.8473 26.8222C41.9437 26.234 42.0594 25.5397 42.1944 24.7394C42.339 23.9391 42.4114 23.5004 42.4114 23.4233C42.4114 23.1533 42.3487 22.9508 42.2233 22.8158C42.098 22.6712 41.8859 22.5989 41.5869 22.5989H41.2977L41.3555 22.3096H45.116C45.9356 22.3096 46.6732 22.4591 47.3289 22.758C47.9845 23.0472 48.3124 23.5968 48.3124 24.4068C48.3124 25.1685 48.0569 25.8049 47.5458 26.3159C47.0348 26.827 46.3598 27.1789 45.521 27.3718L46.5912 29.9028C46.8323 30.491 47.0782 30.9056 47.3289 31.1467C47.5796 31.3877 47.8881 31.5275 48.2545 31.5661L48.2111 31.8554C48.1244 31.8939 47.9942 31.9277 47.8206 31.9566C47.6567 31.9855 47.488 32 47.3144 32ZM44.2193 26.9379C44.6435 26.9379 45.0581 26.8318 45.4631 26.6197C45.8777 26.4075 46.2152 26.1183 46.4755 25.7519C46.7359 25.3758 46.866 24.966 46.866 24.5225C46.866 24.1368 46.7648 23.8186 46.5623 23.5679C46.3598 23.3076 46.1091 23.1196 45.8102 23.0038C45.5113 22.8785 45.2269 22.8158 44.9569 22.8158C44.6194 22.8158 44.2482 22.864 43.8432 22.9605L43.1634 26.7932C43.5299 26.8896 43.8818 26.9379 44.2193 26.9379Z" fill="#047857"/>
<path d="M57.0442 31.9277C56.5814 31.9277 56.1475 31.8023 55.7425 31.5516C55.3472 31.2913 55.0724 30.7899 54.9181 30.0475L54.7157 29.1073H50.6659L49.0316 31.8554H48.3807L54.1082 22.3096H54.5421L56.3645 30.0475C56.4802 30.5971 56.6296 30.9779 56.8128 31.1901C56.996 31.4022 57.2853 31.5275 57.6806 31.5661L57.6372 31.8554C57.4444 31.9036 57.2467 31.9277 57.0442 31.9277ZM50.9841 28.5288H54.5276L53.5297 24.3345L50.9841 28.5288Z" fill="#047857"/>
<path d="M61.5462 22.8881H60.2445C59.0585 22.8881 58.3594 23.4426 58.1473 24.5514H57.858L58.046 23.4667C58.1135 23.1196 58.2534 22.8399 58.4655 22.6278C58.6776 22.4157 59.0151 22.3096 59.4779 22.3096H66.2033L66.1021 22.8881H62.8479L61.2714 31.8554H59.9697L61.5462 22.8881Z" fill="#047857"/>
<path d="M67.1863 26.8222C67.2827 26.234 67.3984 25.5397 67.5334 24.7394C67.678 23.9391 67.7503 23.5004 67.7503 23.4233C67.7503 23.1533 67.6877 22.9508 67.5623 22.8158C67.437 22.6712 67.2248 22.5989 66.9259 22.5989H66.6367L66.6945 22.3096H72.8559C73.5598 22.3096 73.9117 22.5892 73.9117 23.1485C73.9117 23.1678 73.8924 23.2931 73.8538 23.5245L73.6947 24.5514H73.4055C73.4344 24.3875 73.4489 24.2429 73.4489 24.1175C73.4489 23.2979 72.9282 22.8881 71.8868 22.8881H69.1967L68.5314 26.6486H72.4364L72.3352 27.2271H68.4301L67.7214 31.2768H70.2525C70.9178 31.2768 71.4578 31.1563 71.8724 30.9153C72.2966 30.6742 72.6679 30.2644 72.986 29.6859L73.2608 29.7582L72.5088 31.1322C72.2581 31.6143 71.8579 31.8554 71.3083 31.8554H66.3185L67.1863 26.8222Z" fill="#047857"/>
<defs>
<linearGradient id="paint0_linear_6652_47105" x1="19.7769" y1="0.0301187" x2="33.7393" y2="31.9806" gradientUnits="userSpaceOnUse">
<stop stop-color="#047857"/>
<stop offset="1" stop-color="#14BC8D"/>
</linearGradient>
<linearGradient id="paint1_linear_6652_47105" x1="19.7769" y1="0.0301187" x2="33.7393" y2="31.9806" gradientUnits="userSpaceOnUse">
<stop stop-color="#047857"/>
<stop offset="1" stop-color="#14BC8D"/>
</linearGradient>
<linearGradient id="paint2_linear_6652_47105" x1="13.9623" y1="31.9805" x2="9.5156e-06" y2="0.030083" gradientUnits="userSpaceOnUse">
<stop stop-color="#047857"/>
<stop offset="1" stop-color="#14BC8D"/>
</linearGradient>
<linearGradient id="paint3_linear_6652_47105" x1="13.9623" y1="31.9805" x2="9.5156e-06" y2="0.030083" gradientUnits="userSpaceOnUse">
<stop stop-color="#047857"/>
<stop offset="1" stop-color="#14BC8D"/>
</linearGradient>
<linearGradient id="paint4_linear_6652_47105" x1="18.4166" y1="9.83964" x2="15.1361" y2="23.5989" gradientUnits="userSpaceOnUse">
<stop stop-color="#078461"/>
<stop offset="1" stop-color="#12B285"/>
</linearGradient>
</defs>
</svg>
