<svg width="32" height="32" viewBox="0 0 32 32" fill="none" xmlns="http://www.w3.org/2000/svg">
<path d="M16.7445 23.442H13.7678V13.7676H10.0469V11.8102H20.4655V13.7676L16.7445 13.7676V23.442ZM10.0469 8.55826H20.4655V10.7908H10.0469V8.55826Z" fill="#3D81E7"/>
<path fill-rule="evenodd" clip-rule="evenodd" d="M16 2.23256C8.40069 2.23256 2.23256 8.40069 2.23256 16C2.23256 23.5993 8.40069 29.7674 16 29.7674C23.5993 29.7674 29.7674 23.5993 29.7674 16C29.7674 15.3835 30.2672 14.8837 30.8837 14.8837C31.5002 14.8837 32 15.3835 32 16C32 24.8323 24.8323 32 16 32C7.16768 32 0 24.8323 0 16C0 7.16768 7.16768 0 16 0C16.6165 0 17.1163 0.499775 17.1163 1.11628C17.1163 1.73278 16.6165 2.23256 16 2.23256Z" fill="#3D81E7"/>
<path fill-rule="evenodd" clip-rule="evenodd" d="M23.4415 1.48828C24.058 1.48828 24.5578 1.98806 24.5578 2.60456V7.44177H29.395C30.0115 7.44177 30.5112 7.94154 30.5112 8.55805C30.5112 9.17455 30.0115 9.67433 29.395 9.67433H23.4415C22.825 9.67433 22.3252 9.17455 22.3252 8.55805V2.60456C22.3252 1.98806 22.825 1.48828 23.4415 1.48828Z" fill="#3D81E7"/>
<path fill-rule="evenodd" clip-rule="evenodd" d="M30.3966 1.60371C30.7571 1.96419 30.7571 2.54865 30.3966 2.90913L24.2428 9.06298C23.8823 9.42346 23.2978 9.42346 22.9374 9.06298C22.5769 8.7025 22.5769 8.11804 22.9374 7.75755L29.0912 1.60371C29.4517 1.24322 30.0361 1.24322 30.3966 1.60371Z" fill="#3D81E7"/>
</svg>
