<svg width="24" height="24" viewBox="0 0 24 24" fill="none" xmlns="http://www.w3.org/2000/svg">
<path d="M20.7047 15.5203L18.4078 14.4141L20.6906 13.3735C21.6516 12.9375 21.7547 12.2719 21.7547 12.0094C21.7547 11.7422 21.6516 11.0766 20.6953 10.6406L18.3281 9.57659L20.7 8.49377C21.6516 8.05784 21.7547 7.3969 21.7547 7.12971C21.7547 6.86252 21.6516 6.20159 20.6953 5.76565L13.6922 2.57815C12.7266 2.13752 11.2734 2.13752 10.3078 2.57815L3.31406 5.77034C2.35781 6.20627 2.25469 6.86721 2.25469 7.1344C2.25469 7.40159 2.35781 8.06252 3.31406 8.49846L5.68125 9.58127L3.30937 10.6453C2.35312 11.0766 2.25 11.7422 2.25 12.0094C2.25 12.2766 2.35312 12.9422 3.30937 13.3735L5.68125 14.4563L3.31406 15.5203C2.35781 15.9563 2.25469 16.6172 2.25469 16.8844C2.25469 17.1516 2.35781 17.8172 3.31406 18.2485L10.2516 21.4125C10.7437 21.6375 11.3766 21.75 12.0047 21.75C12.6375 21.75 13.2656 21.6375 13.7578 21.4125L20.6953 18.2485C21.6516 17.8125 21.7547 17.1516 21.7547 16.8844C21.7547 16.6172 21.6516 15.9563 20.7047 15.5203ZM10.9312 3.94221C11.4891 3.6844 12.5109 3.6844 13.0687 3.94221L20.0719 7.1344L16.2422 8.88284C16.2094 8.8969 16.1766 8.91096 16.1437 8.92971L13.1391 10.3031C12.5484 10.575 11.4656 10.575 10.875 10.3031L3.9375 7.1344L10.9312 3.94221ZM7.5 10.4063L10.2516 11.6625C10.7437 11.8875 11.3766 12 12.0047 12C12.6375 12 13.2656 11.8875 13.7578 11.6625L16.5047 10.411L20.0719 12.0094L13.1344 15.1735C12.5438 15.4453 11.4609 15.4453 10.8703 15.1735L3.93281 12.0094L7.5 10.4063ZM13.1344 20.0485C12.5438 20.3203 11.4609 20.3203 10.8703 20.0485L3.9375 16.8844L7.5 15.286L10.2469 16.5375C10.7391 16.7625 11.3719 16.875 12 16.875C12.6281 16.875 13.2609 16.7625 13.7531 16.5375L16.6266 15.225L20.0578 16.875C20.0625 16.875 20.0672 16.8797 20.0719 16.8797L13.1344 20.0485Z" fill="#047857"/>
</svg>
