<svg width="24" height="24" viewBox="0 0 24 24" fill="none" xmlns="http://www.w3.org/2000/svg">
<path fill-rule="evenodd" clip-rule="evenodd" d="M16.2411 7.68294C16.5543 7.95404 16.5884 8.42768 16.3173 8.74086L11.1235 14.7409C10.9881 14.8973 10.794 14.9909 10.5873 14.9994C10.3805 15.0079 10.1794 14.9306 10.0316 14.7857L7.72536 12.5264C7.42948 12.2365 7.4246 11.7617 7.71447 11.4658C8.00434 11.1699 8.47919 11.165 8.77508 11.4549L10.5115 13.156L15.1832 7.75914C15.4543 7.44596 15.9279 7.41185 16.2411 7.68294Z" fill="#047857"/>
<path fill-rule="evenodd" clip-rule="evenodd" d="M11.6915 1.56647C11.8878 1.47784 12.1127 1.47784 12.3089 1.56647C16.0377 3.25047 17.7116 3.7885 21.8405 4.52913C22.1804 4.59011 22.4348 4.8754 22.4565 5.22012C23.2492 17.7832 13.0538 22.1342 12.2804 22.4457C12.1006 22.5181 11.8998 22.5181 11.72 22.4457C10.9467 22.1342 0.751238 17.7832 1.54389 5.22012C1.56564 4.8754 1.82001 4.59011 2.15999 4.52913C6.28884 3.7885 7.96271 3.25047 11.6915 1.56647ZM3.01236 5.89841C2.65873 16.1309 10.3287 20.1754 12.0002 20.9334C13.6717 20.1754 21.3417 16.1309 20.9881 5.89841C17.2569 5.20575 15.4522 4.61914 12.0002 3.07241C8.54825 4.61914 6.74353 5.20575 3.01236 5.89841Z" fill="#047857"/>
</svg>
