<svg width="24" height="24" viewBox="0 0 24 24" fill="none" xmlns="http://www.w3.org/2000/svg">
<path fill-rule="evenodd" clip-rule="evenodd" d="M8.81802 2.11489C9.66193 1.27098 10.8065 0.796875 12 0.796875C13.1935 0.796875 14.3381 1.27098 15.182 2.11489C16.0259 2.95881 16.5 4.1034 16.5 5.29688V9H17.25C18.9069 9 20.25 10.3431 20.25 12V20.25C20.25 21.9069 18.9069 23.25 17.25 23.25H6.75C5.09315 23.25 3.75 21.9069 3.75 20.25V12C3.75 10.3431 5.09315 9 6.75 9H7.5V5.29688C7.5 4.1034 7.97411 2.95881 8.81802 2.11489ZM6.75 10.5C5.92157 10.5 5.25 11.1716 5.25 12V20.25C5.25 21.0784 5.92157 21.75 6.75 21.75H17.25C18.0784 21.75 18.75 21.0784 18.75 20.25V12C18.75 11.1716 18.0784 10.5 17.25 10.5H6.75ZM15 9H9V5.29688C9 4.50123 9.31607 3.73816 9.87868 3.17555C10.4413 2.61295 11.2044 2.29688 12 2.29688C12.7956 2.29688 13.5587 2.61295 14.1213 3.17555C14.6839 3.73816 15 4.50123 15 5.29688V9Z" fill="#047857"/>
</svg>
