<svg width="32" height="32" viewBox="0 0 32 32" fill="none" xmlns="http://www.w3.org/2000/svg">
<path d="M27.5125 8.075L18.0125 2.54375C16.775 1.81875 15.2312 1.81875 13.9937 2.54375L4.49375 8.075C3.575 8.60625 3 9.6 3 10.6625V21.3375C3 22.4 3.56875 23.3937 4.4875 23.925L13.9875 29.4562C14.5813 29.8 15.2375 29.9812 15.9062 29.9937C15.9375 29.9937 15.9688 30 16 30C16.0312 30 16.0625 30 16.0938 29.9937C16.7563 29.9812 17.4188 29.8 18.0125 29.4562L27.5125 23.925C28.4313 23.3875 29 22.4 29 21.3375V10.6625C29 9.6 28.425 8.60625 27.5125 8.075ZM14.9937 4.275C15.3062 4.09375 15.65 4.00625 16 4.00625C16.35 4.00625 16.6938 4.09375 17.0063 4.275L25.9562 9.4875L16 15.3375L6.04375 9.48125L14.9937 4.275ZM5.49375 22.2C5.1875 22.0188 5 21.6875 5 21.3375V11.1875L15 17.0688V27.725C15 27.725 15 27.725 14.9937 27.725L5.49375 22.2ZM26.5063 22.2L17.0063 27.7313H17V17.0688L27 11.1875V21.3312C27 21.6875 26.8125 22.0188 26.5063 22.2Z" fill="#9CA5AC"/>
</svg>
