<svg width="24" height="24" viewBox="0 0 24 24" fill="none" xmlns="http://www.w3.org/2000/svg">
<path d="M12 12C9.52032 12 7.33594 9.67031 7.125 6.80625C7.01719 5.35312 7.46719 4.00781 8.39063 3.01875C9.3 2.03906 10.5844 1.5 12 1.5C13.4063 1.5 14.686 2.04375 15.6 3.02812C16.5281 4.02656 16.9781 5.36719 16.8703 6.80625C16.6594 9.67031 14.475 12 12 12ZM12 3C11.0063 3 10.1109 3.37031 9.4875 4.04062C8.85469 4.72031 8.54532 5.66719 8.62032 6.69844C8.77032 8.76094 10.3172 10.5047 11.9953 10.5047C13.6734 10.5047 15.2203 8.76094 15.3703 6.69844C15.4453 5.68125 15.136 4.73906 14.4938 4.05C13.875 3.37031 12.9844 3 12 3Z" fill="#047857"/>
<path d="M20.25 22.4999H3.75001C3.30001 22.4999 2.89689 22.3124 2.61564 21.9796C2.31095 21.614 2.18908 21.1171 2.27814 20.6155C2.67189 18.4218 3.90939 16.5749 5.85001 15.2859C7.57501 14.1374 9.75939 13.5046 12 13.5046C14.2406 13.5046 16.425 14.1374 18.15 15.2859C20.0906 16.5796 21.3281 18.4218 21.7219 20.6155C21.8109 21.1171 21.6891 21.614 21.3844 21.9796C21.1031 22.3124 20.7 22.4999 20.25 22.4999ZM3.75939 20.9999H20.2406C20.25 20.9765 20.2547 20.939 20.2453 20.878C19.5188 16.8421 15.4594 14.9999 12 14.9999C8.54064 14.9999 4.48126 16.8421 3.7547 20.878C3.74533 20.939 3.75001 20.9765 3.75939 20.9999Z" fill="#047857"/>
</svg>
