<svg width="24" height="24" viewBox="0 0 24 24" fill="none" xmlns="http://www.w3.org/2000/svg">
<g clip-path="url(#clip0_5888_8316)">
<path fill-rule="evenodd" clip-rule="evenodd" d="M2.25 1.5C2.25 1.08579 1.91421 0.75 1.5 0.75C1.08579 0.75 0.75 1.08579 0.75 1.5V21.75C0.75 22.1478 0.908035 22.5294 1.18934 22.8107C1.47065 23.092 1.85218 23.25 2.25 23.25H22.5C22.9142 23.25 23.25 22.9142 23.25 22.5C23.25 22.0858 22.9142 21.75 22.5 21.75H2.25V1.5ZM5.25 11.4375C5.25 11.3339 5.33395 11.25 5.4375 11.25H7.3125C7.41605 11.25 7.5 11.3339 7.5 11.4375V18.5625C7.5 18.6661 7.41605 18.75 7.3125 18.75H5.4375C5.33395 18.75 5.25 18.6661 5.25 18.5625V11.4375ZM5.4375 9.75C4.50552 9.75 3.75 10.5055 3.75 11.4375V18.5625C3.75 19.4945 4.50552 20.25 5.4375 20.25H7.3125C8.24448 20.25 9 19.4945 9 18.5625V11.4375C9 10.5055 8.24448 9.75 7.3125 9.75H5.4375ZM12.1875 9C12.0839 9 12 9.08395 12 9.1875V18.5625C12 18.6661 12.0839 18.75 12.1875 18.75H14.0625C14.1661 18.75 14.25 18.6661 14.25 18.5625V9.1875C14.25 9.08395 14.1661 9 14.0625 9H12.1875ZM10.5 9.1875C10.5 8.25552 11.2555 7.5 12.1875 7.5H14.0625C14.9945 7.5 15.75 8.25552 15.75 9.1875V18.5625C15.75 19.4945 14.9945 20.25 14.0625 20.25H12.1875C11.2555 20.25 10.5 19.4945 10.5 18.5625V9.1875ZM18.7332 6.1875C18.7332 6.08395 18.8171 6 18.9207 6H20.7957C20.8992 6 20.9832 6.08395 20.9832 6.1875V18.5625C20.9832 18.6661 20.8992 18.75 20.7957 18.75H18.9207C18.8171 18.75 18.7332 18.6661 18.7332 18.5625V6.1875ZM18.9207 4.5C17.9887 4.5 17.2332 5.25552 17.2332 6.1875V18.5625C17.2332 19.4945 17.9887 20.25 18.9207 20.25H20.7957C21.7276 20.25 22.4832 19.4945 22.4832 18.5625V6.1875C22.4832 5.25552 21.7276 4.5 20.7957 4.5H18.9207Z" fill="#047857"/>
</g>
<defs>
<clipPath id="clip0_5888_8316">
<rect width="24" height="24" fill="white"/>
</clipPath>
</defs>
</svg>
