<svg width="130" height="153" viewBox="0 0 130 153" fill="none" xmlns="http://www.w3.org/2000/svg">
<path d="M67.3227 12.8284L67.3227 0C90.3291 2.01129e-06 108.979 18.6504 108.979 41.6568C108.979 64.6632 90.3291 83.3136 67.3227 83.3136C84.5775 83.3136 98.5653 69.3258 98.5653 52.071C98.5653 34.8162 90.5775 12.8284 67.3227 12.8284Z" fill="url(#paint0_linear_7128_84303)"/>
<path d="M35.8578 41.6568C40.1468 29.5223 47.7195 12.8284 67.3227 12.8284L67.3227 0C50.0679 -1.50846e-06 34.0801 13.9878 34.0801 31.2426C34.0801 34.8942 34.7065 38.3995 35.8578 41.6568Z" fill="url(#paint1_linear_7128_84303)"/>
<path d="M62.6558 68.4851L62.6558 83.3135C39.6494 83.3135 20.999 64.6631 20.999 41.6567C20.999 18.6502 39.6494 -0.000134617 62.6558 -0.000132606C45.401 -0.000134114 31.4132 13.9877 31.4132 31.2425C31.4132 48.4973 39.401 68.4851 62.6558 68.4851Z" fill="url(#paint2_linear_7128_84303)"/>
<path d="M94.1207 41.6567C89.8317 53.7912 82.2591 68.4851 62.6558 68.4851L62.6558 83.3135C79.9106 83.3135 95.8984 69.3257 95.8984 52.0709C95.8984 48.4193 95.272 44.914 94.1207 41.6567Z" fill="url(#paint3_linear_7128_84303)"/>
<path d="M51.582 26.6696C51.1805 24.6284 52.93 22.8091 54.9854 23.1304L70.5753 25.5674C71.8462 25.7661 72.8486 26.7536 73.0662 28.0214L78.2086 57.9897C78.4924 59.6436 77.363 61.2082 75.7038 61.4596L61.7606 63.5723C60.1747 63.8126 58.6807 62.7615 58.3712 61.1876L51.582 26.6696Z" fill="#19C192"/>
<path d="M52.6856 24.4511C52.2567 22.4345 53.9448 20.5972 55.9904 20.8541L71.1356 22.7566C72.4569 22.9226 73.5102 23.9405 73.7211 25.2554L78.8139 57.0041C79.0797 58.6609 77.9334 60.2131 76.2717 60.4464L63.5705 62.2301C62.012 62.449 60.5498 61.4252 60.2224 59.8859L52.6856 24.4511Z" fill="url(#paint4_linear_7128_84303)"/>
<path d="M58.3237 34.3718C57.9407 33.7149 58.4444 32.8962 59.2035 32.942L72.4021 33.7375C72.6534 33.7526 72.8746 33.9085 72.9735 34.14C73.1625 34.583 72.8325 35.0737 72.3509 35.0657L59.1303 34.8443C58.7973 34.8387 58.4914 34.6595 58.3237 34.3718Z" fill="white"/>
<path d="M59.2587 37.6173C58.9437 37.1587 59.2887 36.5375 59.8445 36.5626L70.4945 37.0439C70.6128 37.0493 70.7228 37.1067 70.7948 37.2008C70.9961 37.4637 70.8099 37.8435 70.4788 37.8455L59.8182 37.9095C59.5948 37.9109 59.3852 37.8014 59.2587 37.6173Z" fill="white"/>
<path d="M60.3925 40.3828C60.0674 39.9313 60.3987 39.3026 60.9549 39.3155L71.6129 39.5619C71.7313 39.5647 71.8425 39.6196 71.9166 39.7121C72.1236 39.9706 71.9459 40.3544 71.6149 40.3637L60.9583 40.6627C60.735 40.6689 60.523 40.5641 60.3925 40.3828Z" fill="white"/>
<path d="M64.0731 57.3643C63.159 55.3734 63.1018 53.1711 63.487 51.0423C63.6742 50.0064 63.9443 48.9705 64.3382 47.9941C64.6402 47.2444 65.3708 45.5583 66.3132 45.4405C68.0845 45.2207 66.6424 50.3156 66.4189 51.1585C65.8843 53.1772 65.0945 55.1172 64.0441 56.9232C64.189 56.9843 64.3323 57.046 64.4766 57.1057C64.8205 56.4386 65.222 55.809 65.6975 55.2287C65.9132 54.9652 66.1397 54.7076 66.3848 54.471C66.5809 54.2798 66.9458 53.8847 67.1112 54.1791C67.2597 54.4449 67.0325 55.6526 67.0175 55.8361C66.9797 56.2959 66.9364 56.7546 66.8921 57.2154C66.8683 57.4684 67.1924 57.6172 67.33 57.3737C67.8095 56.5247 68.3262 55.7046 68.8854 54.9061C68.7417 54.8936 68.598 54.881 68.4537 54.867C68.6516 55.3662 68.796 55.8668 68.8975 56.3951C68.9427 56.6352 69.3059 56.589 69.3506 56.3748C69.5673 55.3573 70.0022 54.3777 70.4417 53.4386C70.2947 53.4054 70.1463 53.3728 69.9993 53.3396C70.0813 54.1732 70.2188 55.0603 70.6138 55.8072C70.7075 55.9837 71.0127 55.9323 71.0421 55.7345C71.1488 55.0117 71.5607 54.3204 71.9582 53.7144C71.8139 53.7004 71.6702 53.6878 71.5259 53.6738C71.6579 54.1356 71.7878 54.5965 71.9198 55.0583C71.9904 55.3067 72.3008 55.2431 72.3741 55.0409C72.5859 54.4563 72.7978 53.8716 73.009 53.2855C72.8576 53.2913 72.7062 53.2971 72.5556 53.3009C72.7056 53.7114 72.941 54.2781 73.3538 54.4871C74.0734 54.852 74.9779 53.8472 75.4931 53.4806C75.7392 53.3045 75.4707 52.9185 75.2246 53.0946C74.8841 53.3378 73.94 54.2995 73.4673 53.9847C73.247 53.8377 73.0896 53.3964 73.0057 53.1652C72.9207 52.9311 72.6302 52.9647 72.5523 53.1805C72.341 53.7666 72.1292 54.3513 71.9179 54.9374L72.3722 54.92C72.2403 54.4582 72.1098 53.9958 71.9784 53.5355C71.9182 53.3251 71.6514 53.3338 71.5462 53.4949C71.1277 54.1365 70.7009 54.866 70.5872 55.6338C70.7295 55.6098 70.8733 55.5851 71.0156 55.5611C70.6592 54.888 70.545 54.0709 70.4713 53.3201C70.4503 53.1022 70.1326 52.9982 70.0289 53.2211C69.5733 54.1955 69.118 55.2205 68.8948 56.2762C69.0456 56.2689 69.1971 56.2631 69.3479 56.2559C69.247 55.7291 69.102 55.227 68.9041 54.7278C68.823 54.5242 68.5887 54.5214 68.4725 54.6887C67.9147 55.4866 67.3972 56.3087 66.9171 57.1562C67.0633 57.2083 67.2096 57.2604 67.3549 57.3145C67.4261 56.5792 67.4952 55.843 67.5434 55.1052C67.5676 54.749 67.7255 54.0899 67.4766 53.7771C66.5198 52.5707 64.3467 56.3456 64.0468 56.9255C63.9062 57.199 64.3309 57.3626 64.4792 57.108C65.7743 54.8814 66.6567 52.4543 67.192 49.9384C67.4152 48.8911 68.5791 45.028 66.4434 44.9668C65.5648 44.9421 64.9096 45.9452 64.5115 46.5954C63.9117 47.5727 63.5621 48.6831 63.2817 49.7891C62.6307 52.3571 62.528 55.0976 63.6433 57.5542C63.7687 57.8294 64.1991 57.641 64.0731 57.3643Z" fill="white"/>
<path d="M18.1594 124.02C16.8154 124.02 15.5194 123.84 14.2714 123.48C13.0234 123.144 12.0034 122.652 11.2114 122.004C10.4194 121.332 10.0234 120.564 10.0234 119.7V115.488H11.0314C11.3914 117.936 12.1474 119.7 13.2994 120.78C14.4514 121.86 16.0594 122.4 18.1234 122.4C19.5154 122.4 20.6194 122.1 21.4354 121.5C22.2514 120.9 22.6594 120.036 22.6594 118.908C22.6594 117.948 22.3594 117.132 21.7594 116.46C21.1594 115.788 20.2234 115.056 18.9514 114.264L14.5234 111.6C12.9154 110.664 11.7634 109.692 11.0674 108.684C10.3954 107.676 10.0594 106.5 10.0594 105.156C10.0594 103.26 10.7794 101.76 12.2194 100.656C13.6834 99.552 15.6514 99 18.1234 99C19.4674 99 20.7634 99.18 22.0114 99.54C23.2594 99.876 24.2794 100.38 25.0714 101.052C25.8634 101.7 26.2594 102.456 26.2594 103.32V107.532H25.2514C24.8434 105.084 24.0874 103.32 22.9834 102.24C21.8794 101.16 20.3914 100.62 18.5194 100.62C17.2234 100.62 16.1914 100.932 15.4234 101.556C14.6794 102.18 14.3074 103.032 14.3074 104.112C14.3074 105.048 14.5954 105.828 15.1714 106.452C15.7714 107.052 16.7314 107.736 18.0514 108.504L22.4794 111.132C24.1594 112.116 25.3594 113.076 26.0794 114.012C26.8234 114.924 27.1954 116.028 27.1954 117.324C27.1954 119.412 26.4034 121.056 24.8194 122.256C23.2594 123.432 21.0394 124.02 18.1594 124.02Z" fill="#222222"/>
<path d="M31.9311 104.328C31.9311 103.104 31.7631 102.204 31.4271 101.628C31.0911 101.028 30.4191 100.728 29.4111 100.728H29.0511V99.648H33.3711C34.2351 99.648 34.8951 99.792 35.3511 100.08C35.8071 100.368 36.1311 100.848 36.3231 101.52C36.5151 102.168 36.6111 103.104 36.6111 104.328V110.268H46.3311V99.648H51.0111V118.728C51.0111 119.952 51.1791 120.864 51.5151 121.464C51.8511 122.04 52.5231 122.328 53.5311 122.328H53.8911V123.408H49.5711C48.7071 123.408 48.0471 123.276 47.5911 123.012C47.1351 122.724 46.8111 122.256 46.6191 121.608C46.4271 120.936 46.3311 119.976 46.3311 118.728V111.888H36.6111V123.408H31.9311V104.328Z" fill="#222222"/>
<path d="M76.5371 123.552C75.0251 123.552 73.6571 123.24 72.4331 122.616C71.2091 121.968 70.2131 120.72 69.4451 118.872L68.6171 116.856H59.0411L56.0891 123.408H54.2171L64.8371 99.648H66.4571L74.5211 118.872C75.4331 121.104 76.6811 122.304 78.2651 122.472V123.372C77.8331 123.492 77.2571 123.552 76.5371 123.552ZM59.7971 115.236H67.9331L63.9731 105.84L59.7971 115.236Z" fill="#222222"/>
<path d="M97.3977 123.768C96.0777 123.768 94.8777 123.384 93.7977 122.616C92.7177 121.824 91.5897 120.468 90.4137 118.548L86.8137 112.536H85.3737V123.408H80.6577V104.328C80.6577 103.104 80.4897 102.204 80.1537 101.628C79.8177 101.028 79.1457 100.728 78.1377 100.728H77.7777V99.648H87.7137C90.2097 99.648 92.4537 100.104 94.4457 101.016C96.4377 101.928 97.4337 103.68 97.4337 106.272C97.4337 109.272 95.4897 111.264 91.6017 112.248L95.3817 118.548C96.7977 120.924 98.2857 122.244 99.8457 122.508V123.408C99.6537 123.504 99.3057 123.588 98.8017 123.66C98.2977 123.732 97.8297 123.768 97.3977 123.768ZM87.5337 111.096C88.8777 111.096 90.0177 110.7 90.9537 109.908C91.9137 109.092 92.3937 107.82 92.3937 106.092C92.3937 104.388 91.9257 103.128 90.9897 102.312C90.0537 101.496 88.9617 101.088 87.7137 101.088C87.0177 101.088 86.4777 101.136 86.0937 101.232L85.3737 101.34V111.096H87.5337Z" fill="#222222"/>
<path d="M107.773 101.268H105.217C103.873 101.268 102.841 101.604 102.121 102.276C101.425 102.948 101.077 104.052 101.077 105.588H99.9973V102.528C99.9973 100.608 101.017 99.648 103.057 99.648H119.977V101.268H112.453V123.408H107.773V101.268Z" fill="#222222"/>
<path d="M48.1897 152.1C47.3417 152.1 46.6457 151.852 46.1017 151.356C45.5577 150.844 45.0137 149.932 44.4697 148.62L42.7897 144.54H41.1097L39.8377 151.86H37.6777L39.1177 143.508C39.2777 142.532 39.4697 141.38 39.6937 140.052C39.9337 138.724 40.0537 137.996 40.0537 137.868C40.0537 137.42 39.9497 137.084 39.7417 136.86C39.5337 136.62 39.1817 136.5 38.6857 136.5H38.2057L38.3017 136.02H44.5417C45.9017 136.02 47.1257 136.268 48.2137 136.764C49.3017 137.244 49.8457 138.156 49.8457 139.5C49.8457 140.764 49.4217 141.82 48.5737 142.668C47.7257 143.516 46.6057 144.1 45.2137 144.42L46.9897 148.62C47.3897 149.596 47.7977 150.284 48.2137 150.684C48.6297 151.084 49.1417 151.316 49.7497 151.38L49.6777 151.86C49.5337 151.924 49.3177 151.98 49.0297 152.028C48.7577 152.076 48.4777 152.1 48.1897 152.1ZM43.0537 143.7C43.7577 143.7 44.4457 143.524 45.1177 143.172C45.8057 142.82 46.3657 142.34 46.7977 141.732C47.2297 141.108 47.4457 140.428 47.4457 139.692C47.4457 139.052 47.2777 138.524 46.9417 138.108C46.6057 137.676 46.1897 137.364 45.6937 137.172C45.1977 136.964 44.7257 136.86 44.2777 136.86C43.7177 136.86 43.1017 136.94 42.4297 137.1L41.3017 143.46C41.9097 143.62 42.4937 143.7 43.0537 143.7Z" fill="#047857"/>
<path d="M64.3352 151.98C63.5672 151.98 62.8472 151.772 62.1752 151.356C61.5192 150.924 61.0632 150.092 60.8072 148.86L60.4712 147.3H53.7512L51.0392 151.86H49.9592L59.4632 136.02H60.1832L63.2072 148.86C63.3992 149.772 63.6472 150.404 63.9512 150.756C64.2552 151.108 64.7352 151.316 65.3912 151.38L65.3192 151.86C64.9992 151.94 64.6712 151.98 64.3352 151.98ZM54.2792 146.34H60.1592L58.5032 139.38L54.2792 146.34Z" fill="#047857"/>
<path d="M71.8055 136.98H69.6455C67.6775 136.98 66.5175 137.9 66.1655 139.74H65.6855L65.9975 137.94C66.1095 137.364 66.3415 136.9 66.6935 136.548C67.0455 136.196 67.6055 136.02 68.3735 136.02H79.5335L79.3655 136.98H73.9655L71.3495 151.86H69.1895L71.8055 136.98Z" fill="#047857"/>
<path d="M81.1646 143.508C81.3246 142.532 81.5166 141.38 81.7406 140.052C81.9806 138.724 82.1006 137.996 82.1006 137.868C82.1006 137.42 81.9966 137.084 81.7886 136.86C81.5806 136.62 81.2286 136.5 80.7326 136.5H80.2526L80.3486 136.02H90.5726C91.7406 136.02 92.3246 136.484 92.3246 137.412C92.3246 137.444 92.2926 137.652 92.2286 138.036L91.9646 139.74H91.4846C91.5326 139.468 91.5566 139.228 91.5566 139.02C91.5566 137.66 90.6926 136.98 88.9646 136.98H84.5006L83.3966 143.22H89.8766L89.7086 144.18H83.2286L82.0526 150.9H86.2526C87.3566 150.9 88.2526 150.7 88.9406 150.3C89.6446 149.9 90.2606 149.22 90.7886 148.26L91.2446 148.38L89.9966 150.66C89.5806 151.46 88.9166 151.86 88.0046 151.86H79.7246L81.1646 143.508Z" fill="#047857"/>
<defs>
<linearGradient id="paint0_linear_7128_84303" x1="72.5714" y1="4.40396e-06" x2="108.979" y2="83.3136" gradientUnits="userSpaceOnUse">
<stop stop-color="#047857"/>
<stop offset="1" stop-color="#14BC8D"/>
</linearGradient>
<linearGradient id="paint1_linear_7128_84303" x1="72.5714" y1="4.40396e-06" x2="108.979" y2="83.3136" gradientUnits="userSpaceOnUse">
<stop stop-color="#047857"/>
<stop offset="1" stop-color="#14BC8D"/>
</linearGradient>
<linearGradient id="paint2_linear_7128_84303" x1="57.4071" y1="83.3135" x2="20.999" y2="-0.000139229" gradientUnits="userSpaceOnUse">
<stop stop-color="#047857"/>
<stop offset="1" stop-color="#14BC8D"/>
</linearGradient>
<linearGradient id="paint3_linear_7128_84303" x1="57.4071" y1="83.3135" x2="20.999" y2="-0.000139229" gradientUnits="userSpaceOnUse">
<stop stop-color="#047857"/>
<stop offset="1" stop-color="#14BC8D"/>
</linearGradient>
<linearGradient id="paint4_linear_7128_84303" x1="69.2974" y1="24.5083" x2="60.2229" y2="62.4799" gradientUnits="userSpaceOnUse">
<stop stop-color="#078461"/>
<stop offset="1" stop-color="#12B285"/>
</linearGradient>
</defs>
</svg>
