<svg width="32" height="32" viewBox="0 0 32 32" fill="none" xmlns="http://www.w3.org/2000/svg">
<path d="M21 16C19.7125 16 18.475 15.425 17.5 14.3875C16.5563 13.375 15.975 12.0187 15.875 10.575C15.7688 9.0375 16.2375 7.61875 17.1938 6.5875C18.15 5.5625 19.5 5 21 5C22.4875 5 23.8375 5.56875 24.7938 6.59375C25.7625 7.63125 26.2313 9.04375 26.1188 10.5687C26.0125 12.0125 25.4375 13.3687 24.4938 14.3812C23.525 15.425 22.2875 16 21 16ZM21 7C20.0625 7 19.2313 7.3375 18.6625 7.95C18.075 8.58125 17.8063 9.4375 17.875 10.4312C17.9438 11.4187 18.3313 12.3437 18.9688 13.025C19.5563 13.6562 20.2813 14 21 14C21.725 14 22.4438 13.65 23.0313 13.025C23.6688 12.3437 24.0563 11.425 24.125 10.4312C24.1938 9.46875 23.9125 8.5875 23.325 7.9625C22.7563 7.3375 21.925 7 21 7Z" fill="#9CA5AC"/>
<path d="M29.2375 27.0001H12.7625C12.2188 27.0001 11.7188 26.7564 11.3875 26.3314C11.0438 25.8876 10.9188 25.2876 11.0563 24.7189C11.5813 22.6064 12.8875 20.8564 14.825 19.6501C16.5438 18.5814 18.7375 17.9939 20.9938 17.9939C23.2938 17.9939 25.4313 18.5564 27.1625 19.6251C29.1063 20.8189 30.4125 22.5814 30.9375 24.7189C31.075 25.2876 30.95 25.8876 30.6063 26.3314C30.2813 26.7564 29.7813 27.0001 29.2375 27.0001ZM13.0563 25.0001H28.95C27.9188 21.3126 24.05 20.0001 21 20.0001C17.9625 20.0001 14.1 21.3126 13.0563 25.0001Z" fill="#9CA5AC"/>
<path d="M9.18753 16.2499C6.98753 16.2499 5.05628 14.2061 4.87503 11.6936C4.78128 10.4061 5.18128 9.21862 5.99378 8.34362C6.80003 7.48112 7.93128 7.00612 9.18128 7.00612C10.425 7.00612 11.5563 7.48737 12.3625 8.35612C13.1813 9.23737 13.5813 10.4249 13.4875 11.6999C13.3188 14.2061 11.3813 16.2499 9.18753 16.2499ZM9.18753 8.99987C8.50003 8.99987 7.88753 9.24987 7.46253 9.70612C7.02503 10.1749 6.81878 10.8124 6.87503 11.5499C6.98128 13.0124 8.03753 14.2499 9.18753 14.2499C10.3375 14.2499 11.4 13.0124 11.5 11.5499C11.55 10.8311 11.3375 10.1811 10.9063 9.71237C10.4813 9.24987 9.86878 8.99987 9.18753 8.99987Z" fill="#9CA5AC"/>
<path d="M9.62505 24.9999H2.6063C2.11255 24.9999 1.6563 24.7749 1.35005 24.3936C1.03755 23.9936 0.925048 23.4436 1.05005 22.9311C1.4813 21.1874 2.5563 19.7499 4.15005 18.7624C5.5563 17.8936 7.3438 17.4124 9.1813 17.4124C10.7563 17.4124 12.1 17.6749 13.2875 18.2186C13.7875 18.4499 14.0125 19.0436 13.7813 19.5436C13.55 20.0436 12.9563 20.2686 12.4563 20.0374C11.5375 19.6186 10.4688 19.4124 9.18755 19.4124C6.9063 19.4124 4.02505 20.3624 3.11255 23.0061H9.62505C10.175 23.0061 10.625 23.4561 10.625 24.0061C10.625 24.5561 10.175 24.9999 9.62505 24.9999Z" fill="#9CA5AC"/>
</svg>
