<svg width="20" height="20" viewBox="0 0 20 20" fill="none" xmlns="http://www.w3.org/2000/svg">
<path d="M16.8738 17.4999C16.7917 17.5 16.7104 17.4839 16.6346 17.4525C16.5588 17.421 16.4899 17.3749 16.432 17.3167L2.68203 3.56671C2.56977 3.44855 2.50811 3.29121 2.51019 3.12823C2.51228 2.96525 2.57795 2.80954 2.6932 2.69429C2.80845 2.57904 2.96416 2.51337 3.12714 2.51128C3.29012 2.5092 3.44746 2.57086 3.56562 2.68312L17.3156 16.4331C17.403 16.5205 17.4625 16.6319 17.4865 16.7531C17.5106 16.8743 17.4983 16.9999 17.451 17.1141C17.4037 17.2282 17.3236 17.3258 17.2209 17.3945C17.1182 17.4632 16.9974 17.4999 16.8738 17.4999Z" fill="#222222"/>
<path d="M9.98555 14.9999C8.36484 14.9999 6.80195 14.5202 5.34023 13.5741C4.00937 12.7148 2.81133 11.4839 1.87539 10.0194V10.0163C2.65429 8.90031 3.50742 7.95656 4.42383 7.19562C4.43212 7.18869 4.43888 7.18011 4.44369 7.17044C4.44849 7.16076 4.45124 7.15019 4.45175 7.1394C4.45227 7.1286 4.45054 7.11782 4.44667 7.10773C4.44281 7.09764 4.43689 7.08846 4.42929 7.08078L3.65117 6.30382C3.63734 6.28988 3.61877 6.28166 3.59916 6.28079C3.57954 6.27992 3.56032 6.28647 3.54531 6.29913C2.57187 7.11945 1.66836 8.1257 0.846873 9.30382C0.705539 9.50668 0.627701 9.74697 0.623249 9.99416C0.618798 10.2414 0.687934 10.4843 0.821873 10.6921C1.85351 12.3066 3.18125 13.6663 4.66094 14.6237C6.32695 15.703 8.11992 16.2499 9.98555 16.2499C10.9926 16.2468 11.9924 16.0808 12.9465 15.7585C12.9591 15.7542 12.9704 15.7468 12.9793 15.737C12.9882 15.7271 12.9945 15.7152 12.9975 15.7022C13.0005 15.6893 13.0002 15.6758 12.9965 15.663C12.9928 15.6502 12.986 15.6386 12.9766 15.6292L12.1336 14.7862C12.1142 14.7673 12.0902 14.7538 12.064 14.7469C12.0377 14.7401 12.0102 14.7402 11.984 14.7472C11.3311 14.9153 10.6597 15.0002 9.98555 14.9999Z" fill="#222222"/>
<path d="M19.1723 9.32023C18.1387 7.72179 16.7977 6.36398 15.2945 5.39328C13.6316 4.31828 11.7957 3.74992 9.98555 3.74992C8.98921 3.75168 8.00027 3.92111 7.06015 4.25109C7.04763 4.25545 7.03642 4.26292 7.02758 4.27281C7.01874 4.2827 7.01257 4.29467 7.00964 4.30761C7.00671 4.32054 7.00712 4.33401 7.01083 4.34674C7.01454 4.35948 7.02143 4.37105 7.03086 4.38038L7.87265 5.22218C7.89225 5.24145 7.91658 5.2552 7.94319 5.26206C7.9698 5.26892 7.99775 5.26864 8.02422 5.26124C8.66366 5.08827 9.32312 5.0004 9.98555 4.99992C11.575 4.99992 13.1332 5.48546 14.6164 6.44523C15.9723 7.32023 17.1844 8.54992 18.1227 9.99992C18.1234 10.0008 18.1237 10.0019 18.1237 10.003C18.1237 10.0042 18.1234 10.0053 18.1227 10.0062C17.4416 11.0784 16.5964 12.0371 15.618 12.8472C15.6096 12.8541 15.6027 12.8627 15.5979 12.8724C15.593 12.8821 15.5902 12.8927 15.5896 12.9035C15.5891 12.9143 15.5908 12.9252 15.5947 12.9353C15.5985 12.9455 15.6045 12.9547 15.6121 12.9624L16.3895 13.7394C16.4032 13.7533 16.4217 13.7615 16.4412 13.7624C16.4607 13.7634 16.4799 13.7569 16.4949 13.7444C17.5395 12.865 18.4436 11.8312 19.1762 10.6788C19.3057 10.4758 19.3741 10.2398 19.3734 9.99895C19.3727 9.75812 19.3029 9.52255 19.1723 9.32023Z" fill="#222222"/>
<path d="M9.99883 6.24992C9.71794 6.24976 9.43792 6.28121 9.16406 6.34367C9.15023 6.34654 9.13743 6.35311 9.12704 6.36267C9.11664 6.37224 9.10904 6.38445 9.10503 6.39799C9.10102 6.41154 9.10076 6.42592 9.10428 6.43961C9.10779 6.45329 9.11495 6.46576 9.125 6.4757L13.523 10.8726C13.533 10.8826 13.5455 10.8898 13.5591 10.8933C13.5728 10.8968 13.5872 10.8965 13.6007 10.8925C13.6143 10.8885 13.6265 10.8809 13.6361 10.8705C13.6456 10.8601 13.6522 10.8473 13.6551 10.8335C13.7803 10.2843 13.7802 9.71395 13.6547 9.1648C13.5293 8.61565 13.2817 8.10181 12.9305 7.66146C12.5792 7.2211 12.1332 6.86553 11.6257 6.62116C11.1182 6.37679 10.5621 6.2499 9.99883 6.24992Z" fill="#222222"/>
<path d="M6.47461 9.12726C6.46467 9.11722 6.4522 9.11006 6.43852 9.10654C6.42483 9.10302 6.41045 9.10328 6.39691 9.10729C6.38336 9.1113 6.37115 9.1189 6.36158 9.1293C6.35202 9.1397 6.34545 9.15249 6.34258 9.16632C6.20091 9.78521 6.2187 10.4299 6.39427 11.0401C6.56984 11.6502 6.89745 12.2058 7.34639 12.6547C7.79532 13.1036 8.35089 13.4312 8.96102 13.6068C9.57116 13.7824 10.2159 13.8002 10.8348 13.6585C10.8486 13.6556 10.8614 13.6491 10.8718 13.6395C10.8822 13.6299 10.8898 13.6177 10.8938 13.6042C10.8978 13.5906 10.8981 13.5763 10.8945 13.5626C10.891 13.5489 10.8839 13.5364 10.8738 13.5265L6.47461 9.12726Z" fill="#222222"/>
</svg>
