<svg width="20" height="20" viewBox="0 0 20 20" fill="none" xmlns="http://www.w3.org/2000/svg">
<path fill-rule="evenodd" clip-rule="evenodd" d="M0.847994 9.30373C3.38966 5.66043 6.68521 3.75 9.98676 3.75C13.8643 3.75 17.2044 6.27608 19.1751 9.31969L19.176 9.32112C19.3064 9.52375 19.3757 9.75962 19.3757 10.0006C19.3757 10.2411 19.3067 10.4766 19.1767 10.6789C17.2078 13.7617 13.8892 16.25 9.98676 16.25C6.04275 16.25 2.78817 13.7669 0.824077 10.6931C0.690619 10.4859 0.621399 10.2438 0.625144 9.9973C0.628899 9.75021 0.705813 9.50976 0.846168 9.30636L0.847994 9.30373ZM1.87501 10.0163L1.87673 10.019C3.69084 12.8587 6.59844 15 9.98676 15C13.3371 15 16.3074 12.8496 18.1237 10.0054L18.1249 10.0035C18.1254 10.0027 18.1257 10.0016 18.1257 10.0006C18.1257 10.0001 18.1257 9.99971 18.1256 9.99928C18.1255 9.99875 18.1252 9.99823 18.1249 9.99775C16.3018 7.18262 13.3072 5 9.98676 5C7.19996 5 4.25021 6.61296 1.87501 10.0163ZM10 7.5C8.61933 7.5 7.50004 8.61929 7.50004 10C7.50004 11.3807 8.61933 12.5 10 12.5C11.3807 12.5 12.5 11.3807 12.5 10C12.5 8.61929 11.3807 7.5 10 7.5ZM6.25004 10C6.25004 7.92893 7.92897 6.25 10 6.25C12.0711 6.25 13.75 7.92893 13.75 10C13.75 12.0711 12.0711 13.75 10 13.75C7.92897 13.75 6.25004 12.0711 6.25004 10Z" fill="#222222"/>
</svg>
