<svg width="250" height="210" viewBox="0 0 250 210" fill="none" xmlns="http://www.w3.org/2000/svg">
<g clip-path="url(#clip0_5788_4921)">
<path opacity="0.24" d="M153.846 200.869C168.106 193.62 179.477 181.277 194.333 175.342C204.807 171.154 216.606 170.34 226.358 164.672C240.404 156.53 247.32 139.885 249.333 123.827C250.711 112.831 250.169 101.328 245.654 91.1982C236.678 71.0592 214.626 60.6697 198.867 45.1853C187.751 34.2823 179.47 20.4651 166.949 11.1759C149.157 -1.95445 123.58 -3.68826 104.183 6.89468C90.137 14.5501 79.9234 27.5071 68.4323 38.6369C59.791 47 50.2897 54.432 40.0859 60.8097C31.083 66.4379 21.4179 71.3326 13.9668 78.8881C8.79509 84.2082 4.89005 90.62 2.54083 97.6488C0.191618 104.678 -0.541585 112.143 0.39552 119.493C1.73325 129.629 6.28152 139.058 8.5891 149.021C12.7093 166.846 20.0023 194.117 33.5 206.5C52.5 207 65 205.5 87.4883 208.684C109.969 209.604 133.078 211.438 153.846 200.869Z" fill="#047857"/>
<path d="M33.4673 198.943L33.4674 206.5L87.6674 208.36L86.4167 199.477L33.4673 198.943Z" fill="#047857"/>
<path d="M33.4673 198.943L33.5 206.5L87.6674 208.36L86.4167 199.477L33.4673 198.943Z" fill="url(#paint0_linear_5788_4921)"/>
<path d="M76.1035 95.8572L98.6691 148.907L156.635 125.787C156.635 125.787 159.945 122.899 159.945 125.173V128.681C159.945 128.681 172.579 127.441 177.334 124.76C182.089 122.079 179.193 128.267 177.541 130.128C175.89 131.989 165.737 139.004 161.804 138.797C157.872 138.591 150.214 140.031 150.214 140.031C150.214 140.031 105.083 164.599 99.9064 164.806C94.7298 165.012 87.4866 162.138 87.4866 162.138L74.7793 97.9912L76.1035 95.8572Z" fill="url(#paint1_linear_5788_4921)"/>
<path opacity="0.24" d="M179.789 144.779C211.802 144.779 237.754 118.902 237.754 86.981C237.754 55.0599 211.802 29.1827 179.789 29.1827C147.775 29.1827 121.823 55.0599 121.823 86.981C121.823 118.902 147.775 144.779 179.789 144.779Z" fill="#047857"/>
<path d="M75.6558 93.3965C75.6558 93.3965 99.064 144.806 102.569 144.186C106.073 143.566 115.196 140.058 115.196 140.058C115.196 140.058 117.062 141.092 117.269 142.332C117.476 143.572 119.75 155.543 119.336 157.003C118.921 158.464 100.917 167.32 97.8066 166.286C94.6967 165.253 87.4736 162.118 87.4736 162.118L77.3278 129.094L75.6558 93.3965Z" fill="#047857"/>
<path d="M75.6558 93.3965C75.6558 93.3965 99.064 144.806 102.569 144.186C106.073 143.566 115.196 140.058 115.196 140.058C115.196 140.058 117.062 141.092 117.269 142.332C117.476 143.572 119.75 155.543 119.336 157.003C118.921 158.464 100.917 167.32 97.8066 166.286C94.6967 165.253 87.4736 162.118 87.4736 162.118L77.3278 129.094L75.6558 93.3965Z" fill="url(#paint2_linear_5788_4921)"/>
<path d="M92.0215 135.516C90.567 137.729 88.9078 139.801 87.0656 141.705C87.0656 155.223 87.2261 168.714 87.0656 182.205C87.0656 183.538 87.0656 184.872 87.0054 186.206C86.9653 189.987 86.8917 193.755 86.7713 197.543C86.8136 198.209 86.6822 198.876 86.3901 199.477C85.9663 200.116 85.3325 200.587 84.5977 200.811C81.7151 201.938 78.4915 201.657 75.4083 201.397C64.7074 200.473 53.9909 200.017 43.2587 200.03C40.4966 200.03 37.7478 200.077 34.9789 200.137C34.5609 200.197 34.1355 200.097 33.7884 199.857C33.5773 199.605 33.4531 199.291 33.434 198.963C29.9495 178.87 42.7973 158.564 39.052 138.537C38.3564 134.743 37.079 131.115 35.9754 127.407C34.1964 121.585 32.7986 115.563 32.8856 109.475C32.9182 107.74 33.0814 106.01 33.3738 104.3C34.0449 99.9732 35.8052 95.8869 38.4902 92.4228C40.122 90.3821 42.2221 88.5949 44.7703 87.9947C46.7767 87.5079 48.7831 87.788 50.8296 88.0814C54.7087 88.6082 58.5744 89.1551 62.4468 89.6952C66.4597 90.2554 71.8569 92.116 75.6825 93.3497C78.6921 100.532 81.9024 107.748 86.6376 113.95C88.2828 116.117 90.1087 118.144 91.5934 120.412C93.1637 122.643 94.0891 125.261 94.2687 127.981C94.2566 130.655 93.4768 133.27 92.0215 135.516Z" fill="#047857"/>
<path d="M87.0318 186.206C86.8937 186.78 86.7034 187.34 86.4633 187.88C79.2268 187.833 71.2881 187.526 65.9309 182.671C64.1251 181.031 62.714 178.93 60.6942 177.536C58.6744 176.143 55.6848 175.663 53.9325 177.363C53.2628 178.108 52.7529 178.982 52.4344 179.931C50.2675 185.208 48.0961 190.485 45.9202 195.762C45.2514 197.289 44.6227 198.857 43.3854 199.944C43.3614 199.979 43.326 200.005 43.2851 200.017C40.5229 200.017 37.7741 200.064 35.0053 200.124C34.5872 200.184 34.1619 200.083 33.8148 199.844C33.6037 199.591 33.4794 199.278 33.4603 198.95C29.9759 178.857 42.8236 158.55 39.0783 138.524C38.356 134.743 37.0786 131.115 35.9751 127.407C34.196 121.585 32.7982 115.563 32.8852 109.475C32.9178 107.74 33.081 106.01 33.3734 104.3C35.4467 103.873 37.841 104.64 39.8408 105.574C46.2212 108.535 52.1334 112.949 55.6781 119.025C57.6845 122.452 58.8683 126.294 60.1056 130.075C62.0318 135.93 64.1207 141.727 66.3723 147.467C70.0173 156.723 74.2509 166.033 81.3536 172.995C83.9018 175.489 86.4165 178.657 87.1187 182.178C87.3841 183.511 87.3544 184.886 87.0318 186.206Z" fill="url(#paint3_linear_5788_4921)"/>
<path d="M72.091 31.0699C74.0975 29.0093 77.0737 28.2624 79.9295 28.149C84.1028 27.989 88.4367 29.056 91.6537 31.7168C93.3958 33.2439 94.8598 35.0602 95.9808 37.0852C99.0978 42.3236 100.764 48.2932 100.81 54.384C100.827 60.4867 98.9719 66.4487 95.4926 71.4694C92.4963 75.6974 89.888 80.1389 85.4605 82.853C80.9966 85.5781 75.7736 86.8029 70.5595 86.3475C70.1804 86.332 69.807 86.2508 69.4559 86.1074C68.8267 85.7296 68.3526 85.1411 68.1183 84.4469C66.8267 81.3035 66.3661 77.8821 66.7807 74.5104C67.2031 71.1557 67.901 67.8413 68.8674 64.6006C71.2684 55.5844 73.549 46.3081 72.6328 37.0252C72.3987 34.8445 71.8837 33.2506 72.091 31.0699Z" fill="#606060"/>
<path d="M72.091 31.0699C74.0975 29.0093 77.0737 28.2624 79.9295 28.149C84.1028 27.989 88.4367 29.056 91.6537 31.7168C93.3958 33.2439 94.8598 35.0602 95.9808 37.0852C99.0978 42.3236 100.764 48.2932 100.81 54.384C100.827 60.4867 98.9719 66.4487 95.4926 71.4694C92.4963 75.6974 89.888 80.1389 85.4605 82.853C80.9966 85.5781 75.7736 86.8029 70.5595 86.3475C70.1804 86.332 69.807 86.2508 69.4559 86.1074C68.8267 85.7296 68.3526 85.1411 68.1183 84.4469C66.8267 81.3035 66.3661 77.8821 66.7807 74.5104C67.2031 71.1557 67.901 67.8413 68.8674 64.6006C71.2684 55.5844 73.549 46.3081 72.6328 37.0252C72.3987 34.8445 71.8837 33.2506 72.091 31.0699Z" fill="url(#paint4_linear_5788_4921)"/>
<path d="M84.892 38.7724C86.7045 41.2132 87.4 44.2609 88.3297 47.1484C89.2593 50.036 90.617 53.0103 93.1986 54.6041C93.8674 55.0043 94.6031 55.3644 94.884 56.0713C95.3722 57.3317 94.0145 58.492 93.6133 59.7791C93.212 61.0662 93.8139 62.4866 93.6601 63.8404C93.5798 64.5873 93.2655 65.3009 93.1317 66.0478C92.9846 66.9147 93.0916 67.815 92.911 68.6753C92.4362 71.0093 90.0753 72.4498 87.8214 73.2434C85.5675 74.037 83.0929 74.5772 81.3407 76.1643C79.4747 77.8782 78.8059 80.499 78.2307 82.9665L74.7195 97.9712C74.3516 99.5317 74.0507 101.306 74.9536 102.639C80.0632 109.868 83.1999 118.531 82.5044 127.314C78.1839 115.49 69.5228 105.787 60.4338 97.0309C58.4273 95.097 56.3741 93.1631 54.9429 90.7823C52.0469 85.9874 52.0402 79.9322 53.3979 74.4971C55.9594 64.2605 62.808 55.6978 67.4429 46.1881C68.533 43.9474 69.5697 41.52 71.5627 40.0462C73.4153 38.6457 75.8029 38.2456 78.0969 37.8855C80.5046 37.5187 83.4608 36.8118 84.892 38.7724Z" fill="url(#paint5_linear_5788_4921)"/>
<path d="M76.8523 76.471C76.3355 78.6756 75.6651 80.8415 74.8459 82.9531C73.0044 87.2695 70.088 91.0456 66.3731 93.9236C62.6582 96.8015 58.2678 98.6859 53.618 99.3983C46.9299 100.359 39.7135 98.8514 33.5538 101.699C32.6777 91.8626 32.0423 81.0591 37.8475 73.0566C39.7469 70.4291 42.2884 68.215 43.5993 65.2541C45.9535 59.9191 43.7932 53.8038 44.0741 48.002C44.4888 39.6727 50.4345 31.9969 58.2595 29.0493C63.61 27.0086 70.405 26.9086 75.7154 29.2694C79.5811 30.9899 80.2231 33.6574 80.6512 37.5853C82.1225 50.7162 80.1161 63.7336 76.8523 76.471Z" fill="#606060"/>
<path d="M76.8523 76.471C76.3355 78.6756 75.6651 80.8415 74.8459 82.9531C73.0044 87.2695 70.088 91.0456 66.3731 93.9236C62.6582 96.8015 58.2678 98.6859 53.618 99.3983C46.9299 100.359 39.7135 98.8514 33.5538 101.699C32.6777 91.8626 32.0423 81.0591 37.8475 73.0566C39.7469 70.4291 42.2884 68.215 43.5993 65.2541C45.9535 59.9191 43.7932 53.8038 44.0741 48.002C44.4888 39.6727 50.4345 31.9969 58.2595 29.0493C63.61 27.0086 70.405 26.9086 75.7154 29.2694C79.5811 30.9899 80.2231 33.6574 80.6512 37.5853C82.1225 50.7162 80.1161 63.7336 76.8523 76.471Z" fill="url(#paint6_linear_5788_4921)"/>
<path d="M139.3 158.864C143.587 157.69 147.88 156.51 152.054 154.989C160.313 151.982 168.025 147.654 175.696 143.392C177.034 144.806 174.653 147.394 175.79 148.981C176.062 149.314 176.41 149.577 176.806 149.748C181.568 152.115 187.293 150.568 192.57 151.288C193.005 152.562 191.667 153.696 190.47 154.316C181.976 158.69 172.018 159.064 162.928 162.025C160.347 162.865 157.832 163.919 155.317 164.939C145.954 168.727 136.441 172.093 126.779 175.036C122.031 176.483 117.169 177.837 112.199 177.783C111.72 177.816 111.24 177.714 110.815 177.49C110.391 177.145 110.081 176.68 109.926 176.156C109.043 173.982 107.464 170.121 109.056 167.887C110.548 165.799 115.129 165.499 117.416 164.872L139.3 158.864Z" fill="url(#paint7_linear_5788_4921)"/>
<path d="M153.485 38.619V121.192L204 134.816V62.7L197.232 56.0312L187.775 46.7483L153.485 38.619Z" fill="white"/>
<path d="M193.787 65.7276L189.232 48.2554L203.719 62.7L193.787 65.7276Z" fill="#047857"/>
<path d="M162.194 68.3146L161.858 69.7429L193.6 77.1722L193.936 75.7439L162.194 68.3146Z" fill="#047857"/>
<path d="M169.783 64.8273L162.219 63.0734L162.554 61.6463L170.125 63.4002L169.783 64.8273Z" fill="#047857"/>
<path d="M173.234 65.5809L171.188 65.1341L171.522 63.707L173.568 64.1538L173.234 65.5809Z" fill="#047857"/>
<path d="M176.893 66.4412L174.846 65.9943L175.181 64.5672L177.227 65.014L176.893 66.4412Z" fill="#047857"/>
<path d="M162.197 76.0182L161.86 77.4465L193.602 84.8758L193.938 83.4475L162.197 76.0182Z" fill="#047857"/>
<path d="M162.193 83.727L161.857 85.1553L193.599 92.5846L193.935 91.1563L162.193 83.727Z" fill="#047857"/>
<path d="M162.196 91.4305L161.86 92.8589L193.601 100.288L193.938 98.8598L162.196 91.4305Z" fill="#047857"/>
<path d="M188.303 116.777L182.838 105.254L173.923 113.109L168.941 102.133L163.055 106.894L162.125 105.76L169.496 99.7918L174.445 110.695L183.333 102.859L188.637 114.043L193.285 108.341L194.422 109.268L188.303 116.777Z" fill="#047857"/>
<path d="M42.3289 117.324C42.3289 117.324 66.5932 176.836 75.2409 182.765C85.1794 189.574 119.944 178.37 119.944 178.37C119.944 178.37 116.974 164.679 114.767 164.126C112.56 163.572 86.7644 165.253 86.7644 165.253L59.9051 103.986C59.9051 103.986 46.0073 94.8236 41.3257 104.32C41.3257 104.32 39.0116 111.402 42.3289 117.324Z" fill="#047857"/>
<path d="M86.7647 165.253C86.7647 165.253 70.4792 130.075 70.205 129.368C69.9308 128.661 86.6309 144.779 86.6309 144.779L86.7647 165.253Z" fill="url(#paint8_linear_5788_4921)"/>
</g>
<defs>
<linearGradient id="paint0_linear_5788_4921" x1="32.3906" y1="203.651" x2="87.6675" y2="203.651" gradientUnits="userSpaceOnUse">
<stop stop-opacity="0"/>
<stop offset="0.95"/>
</linearGradient>
<linearGradient id="paint1_linear_5788_4921" x1="74.7191" y1="130.335" x2="179.909" y2="130.335" gradientUnits="userSpaceOnUse">
<stop stop-color="#E5C5D5"/>
<stop offset="0.42" stop-color="#EAD4D1"/>
<stop offset="1" stop-color="#F0E9CB"/>
</linearGradient>
<linearGradient id="paint2_linear_5788_4921" x1="100.756" y1="124.146" x2="54.0152" y2="146.13" gradientUnits="userSpaceOnUse">
<stop stop-opacity="0"/>
<stop offset="0.95"/>
</linearGradient>
<linearGradient id="paint3_linear_5788_4921" x1="23.1473" y1="156.83" x2="113.642" y2="130.267" gradientUnits="userSpaceOnUse">
<stop stop-opacity="0"/>
<stop offset="0.95"/>
</linearGradient>
<linearGradient id="paint4_linear_5788_4921" x1="102.602" y1="49.2757" x2="90.1821" y2="53.2176" gradientUnits="userSpaceOnUse">
<stop stop-opacity="0"/>
<stop offset="0.95"/>
</linearGradient>
<linearGradient id="paint5_linear_5788_4921" x1="52.5418" y1="82.3996" x2="94.9843" y2="82.3996" gradientUnits="userSpaceOnUse">
<stop stop-color="#E5C5D5"/>
<stop offset="0.42" stop-color="#EAD4D1"/>
<stop offset="1" stop-color="#F0E9CB"/>
</linearGradient>
<linearGradient id="paint6_linear_5788_4921" x1="83.9283" y1="63.3068" x2="40.4496" y2="64.9635" gradientUnits="userSpaceOnUse">
<stop stop-opacity="0"/>
<stop offset="0.95"/>
</linearGradient>
<linearGradient id="paint7_linear_5788_4921" x1="108.374" y1="160.591" x2="192.657" y2="160.591" gradientUnits="userSpaceOnUse">
<stop stop-color="#E5C5D5"/>
<stop offset="0.42" stop-color="#EAD4D1"/>
<stop offset="1" stop-color="#F0E9CB"/>
</linearGradient>
<linearGradient id="paint8_linear_5788_4921" x1="87.8281" y1="142.132" x2="49.0633" y2="163.694" gradientUnits="userSpaceOnUse">
<stop stop-opacity="0"/>
<stop offset="0.95"/>
</linearGradient>
<clipPath id="clip0_5788_4921">
<rect width="250" height="210" fill="white"/>
</clipPath>
</defs>
</svg>
