<svg width="250" height="232" viewBox="0 0 250 232" fill="none" xmlns="http://www.w3.org/2000/svg">
<g clip-path="url(#clip0_5800_5549)">
<path opacity="0.18" d="M40.5753 226.19C59.5625 234.726 82.5248 233.822 100.781 223.821C106.448 220.714 111.703 216.782 117.736 214.461C132.357 208.84 148.736 213.527 164.366 212.51C190.761 210.795 213.931 192.328 227.328 169.516C240.725 146.705 245.77 119.992 248.676 93.6947C251.93 64.2925 250.703 29.7996 227.353 11.648C208.686 -2.86785 182.37 -1.42554 159.192 3.22443C136.014 7.8744 112.191 15.0209 89.1935 9.59215C80.9002 7.64152 72.8898 4.06828 64.3787 3.65011C49.199 2.89891 35.1908 12.4142 25.4381 24.0829C8.70384 44.095 1.38182 70.6402 0.195278 96.6995C-0.993767 122.851 3.63475 149.144 4.33066 175.163C4.93644 197.957 19.6355 216.765 40.5753 226.19Z" fill="#047857"/>
<path d="M180.337 51.131H78.6073C70.3537 51.131 63.6628 57.8239 63.6628 66.08V180.051C63.6628 188.307 70.3537 195 78.6073 195H180.337C188.591 195 195.281 188.307 195.281 180.051V66.08C195.281 57.8239 188.591 51.131 180.337 51.131Z" fill="white"/>
<path d="M82.2644 195L100.959 177.902C100.959 177.902 126.722 196.304 151.344 179.92C175.966 163.537 176.78 131.405 165.545 119.073C154.311 106.74 154.448 115.514 154.448 115.514C154.448 115.514 171.971 163.955 133.922 168.815C95.8721 173.675 92.1848 162.845 92.1848 162.845L69.0422 195H82.2644Z" fill="url(#paint0_linear_5800_5549)"/>
<path d="M63.6628 95.65L85.1558 108.323L121.388 83.488L161.452 110.246L195.281 78.9933V68.5991L160.922 98.3268L121.711 76.0761L84.6451 96.1283L63.6628 88.8716V95.65Z" fill="url(#paint1_linear_5800_5549)"/>
<path d="M34.2545 106.998L31.8389 103.958L58.0229 83.1374L84.645 96.1283L121.618 71.4712L162.789 96.569L204.403 56.2042L207.104 58.9912L163.335 101.447L121.711 76.0761L84.9429 100.595L58.5236 87.7023L34.2545 106.998Z" fill="#047857"/>
<path d="M52.8261 197.308C52.235 197.899 51.766 198.6 51.4461 199.372C51.1261 200.145 50.9614 200.972 50.9614 201.808C50.9614 202.644 51.1261 203.471 51.4461 204.243C51.766 205.016 52.235 205.717 52.8261 206.308C53.4166 206.899 54.1178 207.368 54.8897 207.688C55.6615 208.008 56.4889 208.173 57.3244 208.173C58.16 208.173 58.9873 208.008 59.7592 207.688C60.5311 207.368 61.2323 206.899 61.8228 206.308L101.64 168.131C102.832 166.938 103.502 165.319 103.502 163.632C103.502 161.944 102.832 160.326 101.64 159.132C100.446 157.939 98.8283 157.269 97.1412 157.269C95.4541 157.269 93.8361 157.939 92.6429 159.132L52.8261 197.308Z" fill="#047857"/>
<path d="M81.083 135.99C81.0835 144.678 83.6596 153.172 88.4856 160.396C93.3116 167.62 100.171 173.25 108.195 176.575C116.22 179.899 125.051 180.769 133.569 179.073C142.088 177.378 149.913 173.194 156.055 167.05C162.197 160.906 166.379 153.078 168.074 144.557C169.768 136.035 168.898 127.202 165.574 119.175C162.25 111.148 156.621 104.287 149.399 99.4602C142.177 94.6332 133.686 92.0567 125 92.0567C119.233 92.0567 113.522 93.1931 108.193 95.401C102.865 97.6089 98.0233 100.845 93.9451 104.925C89.867 109.004 86.6322 113.847 84.4253 119.178C82.2184 124.508 81.0827 130.221 81.083 135.99ZM92.1774 135.99C92.1789 129.496 94.1052 123.149 97.7127 117.751C101.32 112.353 106.447 108.146 112.445 105.662C118.442 103.178 125.042 102.529 131.408 103.796C137.775 105.064 143.622 108.192 148.212 112.784C152.801 117.376 155.927 123.226 157.193 129.595C158.458 135.963 157.808 142.565 155.324 148.564C152.839 154.563 148.632 159.69 143.235 163.297C137.837 166.905 131.491 168.83 125 168.83C120.689 168.83 116.42 167.981 112.437 166.331C108.454 164.68 104.836 162.261 101.788 159.212C98.7395 156.162 96.322 152.541 94.6731 148.557C93.0241 144.573 92.1761 140.302 92.1774 135.99Z" fill="#047857"/>
<path d="M81.083 135.99C81.0835 144.678 83.6596 153.172 88.4856 160.396C93.3116 167.62 100.171 173.25 108.195 176.575C116.22 179.899 125.051 180.769 133.569 179.073C142.088 177.378 149.913 173.194 156.055 167.05C162.197 160.906 166.379 153.078 168.074 144.557C169.768 136.035 168.898 127.202 165.574 119.175C162.25 111.148 156.621 104.287 149.399 99.4602C142.177 94.6332 133.686 92.0567 125 92.0567C119.233 92.0567 113.522 93.1931 108.193 95.401C102.865 97.6089 98.0233 100.845 93.9451 104.925C89.867 109.004 86.6322 113.847 84.4253 119.178C82.2184 124.508 81.0827 130.221 81.083 135.99ZM92.1774 135.99C92.1789 129.496 94.1052 123.149 97.7127 117.751C101.32 112.353 106.447 108.146 112.445 105.662C118.442 103.178 125.042 102.529 131.408 103.796C137.775 105.064 143.622 108.192 148.212 112.784C152.801 117.376 155.927 123.226 157.193 129.595C158.458 135.963 157.808 142.565 155.324 148.564C152.839 154.563 148.632 159.69 143.235 163.297C137.837 166.905 131.491 168.83 125 168.83C120.689 168.83 116.42 167.981 112.437 166.331C108.454 164.68 104.836 162.261 101.788 159.212C98.7395 156.162 96.322 152.541 94.6731 148.557C93.0241 144.573 92.1761 140.302 92.1774 135.99Z" fill="url(#paint2_linear_5800_5549)"/>
<path d="M77.7085 132.802C77.708 141.492 80.2835 149.986 85.1092 157.211C89.935 164.436 96.7943 170.068 104.82 173.393C112.845 176.719 121.676 177.589 130.196 175.894C138.716 174.199 146.542 170.014 152.684 163.87C158.826 157.726 163.009 149.897 164.704 141.375C166.398 132.853 165.528 124.019 162.204 115.991C158.88 107.963 153.25 101.102 146.027 96.2747C138.804 91.4474 130.312 88.8711 121.626 88.8716C109.978 88.8716 98.8076 93.5 90.5715 101.739C82.3355 109.977 77.7085 121.151 77.7085 132.802ZM88.8054 132.802C88.8049 126.308 90.7296 119.96 94.336 114.56C97.9424 109.161 103.069 104.952 109.066 102.467C115.064 99.9813 121.664 99.3309 128.031 100.598C134.398 101.864 140.247 104.992 144.837 109.583C149.428 114.175 152.554 120.026 153.82 126.395C155.087 132.764 154.436 139.366 151.952 145.365C149.467 151.365 145.26 156.493 139.862 160.1C134.464 163.708 128.118 165.633 121.626 165.632C112.921 165.632 104.573 162.174 98.4182 156.017C92.2633 149.86 88.8054 141.509 88.8054 132.802Z" fill="#047857"/>
<path d="M207.177 78.9933L203.304 78.7254L204.696 58.5605L182.277 62.1763L181.659 58.3426L208.904 53.9506L207.177 78.9933Z" fill="#047857"/>
<path d="M110.786 140.014H103.56V150.085H110.786V140.014Z" fill="#047857"/>
<path d="M119.701 129.567H112.474V150.085H119.701V129.567Z" fill="#047857"/>
<path d="M128.615 137.592H121.388V150.085H128.615V137.592Z" fill="#047857"/>
<path d="M137.526 123.067H130.299V150.085H137.526V123.067Z" fill="#047857"/>
<path d="M119.701 129.567H112.474V150.085H119.701V129.567Z" fill="url(#paint3_linear_5800_5549)"/>
<path d="M137.526 123.067H130.299V150.085H137.526V123.067Z" fill="url(#paint4_linear_5800_5549)"/>
<path d="M146.44 115.519H139.213V150.085H146.44V115.519Z" fill="#047857"/>
<path d="M121.628 79.8622C124.737 79.8622 127.258 77.3408 127.258 74.2306C127.258 71.1204 124.737 68.5991 121.628 68.5991C118.519 68.5991 115.998 71.1204 115.998 74.2306C115.998 77.3408 118.519 79.8622 121.628 79.8622Z" fill="#047857"/>
<path d="M121.628 79.8622C124.737 79.8622 127.258 77.3408 127.258 74.2306C127.258 71.1204 124.737 68.5991 121.628 68.5991C118.519 68.5991 115.998 71.1204 115.998 74.2306C115.998 77.3408 118.519 79.8622 121.628 79.8622Z" fill="url(#paint5_linear_5800_5549)"/>
<path d="M162.504 103.157C165.613 103.157 168.134 100.636 168.134 97.5255C168.134 94.4153 165.613 91.894 162.504 91.894C159.395 91.894 156.874 94.4153 156.874 97.5255C156.874 100.636 159.395 103.157 162.504 103.157Z" fill="#047857"/>
<path d="M162.504 103.157C165.613 103.157 168.134 100.636 168.134 97.5255C168.134 94.4153 165.613 91.894 162.504 91.894C159.395 91.894 156.874 94.4153 156.874 97.5255C156.874 100.636 159.395 103.157 162.504 103.157Z" fill="url(#paint6_linear_5800_5549)"/>
<path d="M58.0329 91.5284C61.1422 91.5284 63.6627 89.0071 63.6627 85.8969C63.6627 82.7867 61.1422 80.2653 58.0329 80.2653C54.9236 80.2653 52.4031 82.7867 52.4031 85.8969C52.4031 89.0071 54.9236 91.5284 58.0329 91.5284Z" fill="#047857"/>
<path d="M58.0329 91.5284C61.1422 91.5284 63.6627 89.0071 63.6627 85.8969C63.6627 82.7867 61.1422 80.2653 58.0329 80.2653C54.9236 80.2653 52.4031 82.7867 52.4031 85.8969C52.4031 89.0071 54.9236 91.5284 58.0329 91.5284Z" fill="url(#paint7_linear_5800_5549)"/>
<path d="M84.7077 103.958C87.817 103.958 90.3375 101.437 90.3375 98.3268C90.3375 95.2166 87.817 92.6953 84.7077 92.6953C81.5984 92.6953 79.0779 95.2166 79.0779 98.3268C79.0779 101.437 81.5984 103.958 84.7077 103.958Z" fill="#047857"/>
<path d="M84.7077 103.958C87.817 103.958 90.3375 101.437 90.3375 98.3268C90.3375 95.2166 87.817 92.6953 84.7077 92.6953C81.5984 92.6953 79.0779 95.2166 79.0779 98.3268C79.0779 101.437 81.5984 103.958 84.7077 103.958Z" fill="url(#paint8_linear_5800_5549)"/>
<path d="M81.8668 37.7488C81.6201 37.4939 81.2549 37.4054 80.919 37.5191L75.7671 39.2625C74.9686 39.5327 74.2696 38.6771 74.6529 37.8987L77.1206 32.888C77.2809 32.5625 77.2567 32.1751 77.0576 31.8811L73.9912 27.3537C73.5162 26.6524 74.097 25.686 74.9191 25.8097L80.2124 26.6064C80.5571 26.6583 80.9048 26.5074 81.1162 26.2143L84.3585 21.7181C84.8617 21.0203 85.9132 21.2752 86.0412 22.126L86.8664 27.6081C86.9202 27.9655 87.1603 28.2589 87.4905 28.3706L92.5613 30.086C93.3488 30.3524 93.4229 31.4775 92.6797 31.8835L87.8817 34.5047C87.5701 34.6749 87.3713 35.0083 87.3648 35.3711L87.2658 40.9563C87.2505 41.8239 86.2376 42.2645 85.6513 41.6588L81.8668 37.7488Z" fill="white"/>
<path d="M104.186 37.7488C103.939 37.4939 103.574 37.4054 103.238 37.5191L98.0859 39.2625C97.2874 39.5327 96.5884 38.6771 96.9718 37.8987L99.4395 32.888C99.5998 32.5625 99.5755 32.1751 99.3764 31.8811L96.3101 27.3537C95.8351 26.6524 96.4159 25.686 97.2379 25.8097L102.531 26.6064C102.876 26.6583 103.224 26.5074 103.435 26.2143L106.677 21.7181C107.181 21.0203 108.232 21.2752 108.36 22.126L109.185 27.6081C109.239 27.9655 109.479 28.2589 109.809 28.3706L114.88 30.086C115.668 30.3524 115.742 31.4775 114.999 31.8835L110.201 34.5047C109.889 34.6749 109.69 35.0083 109.684 35.3711L109.585 40.9563C109.569 41.8239 108.556 42.2645 107.97 41.6588L104.186 37.7488Z" fill="white"/>
<path d="M126.186 37.7488C125.939 37.4939 125.574 37.4054 125.238 37.5191L120.086 39.2625C119.287 39.5327 118.588 38.6771 118.972 37.8987L121.439 32.888C121.6 32.5625 121.576 32.1751 121.376 31.8811L118.31 27.3537C117.835 26.6524 118.416 25.686 119.238 25.8097L124.531 26.6064C124.876 26.6583 125.224 26.5074 125.435 26.2143L128.677 21.7181C129.181 21.0203 130.232 21.2752 130.36 22.126L131.185 27.6081C131.239 27.9655 131.479 28.2589 131.809 28.3706L136.88 30.086C137.668 30.3524 137.742 31.4775 136.999 31.8835L132.201 34.5047C131.889 34.6749 131.69 35.0083 131.684 35.3711L131.585 40.9563C131.569 41.8239 130.556 42.2645 129.97 41.6588L126.186 37.7488Z" fill="white"/>
<path d="M148.186 37.7488C147.939 37.4939 147.574 37.4054 147.238 37.5191L142.086 39.2625C141.287 39.5327 140.588 38.6771 140.972 37.8987L143.439 32.888C143.6 32.5625 143.576 32.1751 143.376 31.8811L140.31 27.3537C139.835 26.6524 140.416 25.686 141.238 25.8097L146.531 26.6064C146.876 26.6583 147.224 26.5074 147.435 26.2143L150.677 21.7181C151.181 21.0203 152.232 21.2752 152.36 22.126L153.185 27.6081C153.239 27.9655 153.479 28.2589 153.809 28.3706L158.88 30.086C159.668 30.3524 159.742 31.4775 158.999 31.8835L154.201 34.5047C153.889 34.6749 153.69 35.0083 153.684 35.3711L153.585 40.9563C153.569 41.8239 152.556 42.2645 151.97 41.6588L148.186 37.7488Z" fill="white"/>
<path d="M170.186 37.7488C169.939 37.4939 169.574 37.4054 169.238 37.5191L164.086 39.2625C163.287 39.5327 162.588 38.6771 162.972 37.8987L165.439 32.888C165.6 32.5625 165.576 32.1751 165.376 31.8811L162.31 27.3537C161.835 26.6524 162.416 25.686 163.238 25.8097L168.531 26.6064C168.876 26.6583 169.224 26.5074 169.435 26.2143L172.677 21.7181C173.181 21.0203 174.232 21.2752 174.36 22.126L175.185 27.6081C175.239 27.9655 175.479 28.2589 175.809 28.3706L180.88 30.086C181.668 30.3524 181.742 31.4775 180.999 31.8835L176.201 34.5047C175.889 34.6749 175.69 35.0083 175.684 35.3711L175.585 40.9563C175.569 41.8239 174.556 42.2645 173.97 41.6588L170.186 37.7488Z" fill="white"/>
</g>
<defs>
<linearGradient id="paint0_linear_5800_5549" x1="83.8089" y1="92.0918" x2="198.769" y2="312.364" gradientUnits="userSpaceOnUse">
<stop offset="0.01"/>
<stop offset="0.08" stop-opacity="0.69"/>
<stop offset="0.21" stop-opacity="0.32"/>
<stop offset="1" stop-opacity="0"/>
</linearGradient>
<linearGradient id="paint1_linear_5800_5549" x1="128.895" y1="3.21912" x2="130.719" y2="252.259" gradientUnits="userSpaceOnUse">
<stop offset="0.01"/>
<stop offset="0.08" stop-opacity="0.69"/>
<stop offset="0.21" stop-opacity="0.32"/>
<stop offset="1" stop-opacity="0"/>
</linearGradient>
<linearGradient id="paint2_linear_5800_5549" x1="26.86" y1="21.7138" x2="460.644" y2="526.501" gradientUnits="userSpaceOnUse">
<stop offset="0.01"/>
<stop offset="0.08" stop-opacity="0.69"/>
<stop offset="0.21" stop-opacity="0.32"/>
<stop offset="1" stop-opacity="0"/>
</linearGradient>
<linearGradient id="paint3_linear_5800_5549" x1="99.0537" y1="107.574" x2="175.695" y2="252.6" gradientUnits="userSpaceOnUse">
<stop offset="0.01"/>
<stop offset="0.08" stop-opacity="0.69"/>
<stop offset="0.21" stop-opacity="0.32"/>
<stop offset="1" stop-opacity="0"/>
</linearGradient>
<linearGradient id="paint4_linear_5800_5549" x1="114.334" y1="99.5012" x2="190.975" y2="244.525" gradientUnits="userSpaceOnUse">
<stop offset="0.01"/>
<stop offset="0.08" stop-opacity="0.69"/>
<stop offset="0.21" stop-opacity="0.32"/>
<stop offset="1" stop-opacity="0"/>
</linearGradient>
<linearGradient id="paint5_linear_5800_5549" x1="104.488" y1="64.9708" x2="212.571" y2="123.327" gradientUnits="userSpaceOnUse">
<stop offset="0.01"/>
<stop offset="0.08" stop-opacity="0.69"/>
<stop offset="0.21" stop-opacity="0.32"/>
<stop offset="1" stop-opacity="0"/>
</linearGradient>
<linearGradient id="paint6_linear_5800_5549" x1="145.367" y1="88.2657" x2="253.447" y2="146.622" gradientUnits="userSpaceOnUse">
<stop offset="0.01"/>
<stop offset="0.08" stop-opacity="0.69"/>
<stop offset="0.21" stop-opacity="0.32"/>
<stop offset="1" stop-opacity="0"/>
</linearGradient>
<linearGradient id="paint7_linear_5800_5549" x1="40.8956" y1="76.637" x2="148.976" y2="134.993" gradientUnits="userSpaceOnUse">
<stop offset="0.01"/>
<stop offset="0.08" stop-opacity="0.69"/>
<stop offset="0.21" stop-opacity="0.32"/>
<stop offset="1" stop-opacity="0"/>
</linearGradient>
<linearGradient id="paint8_linear_5800_5549" x1="67.5704" y1="89.067" x2="175.651" y2="147.421" gradientUnits="userSpaceOnUse">
<stop offset="0.01"/>
<stop offset="0.08" stop-opacity="0.69"/>
<stop offset="0.21" stop-opacity="0.32"/>
<stop offset="1" stop-opacity="0"/>
</linearGradient>
<clipPath id="clip0_5800_5549">
<rect width="250" height="232" fill="white"/>
</clipPath>
</defs>
</svg>
