<svg width="250" height="240" viewBox="0 0 250 240" fill="none" xmlns="http://www.w3.org/2000/svg">
<g clip-path="url(#clip0_5793_5289)">
<path opacity="0.18" d="M245.057 150.197C240.61 159.828 232.558 167.346 230.323 177.95C229.36 182.524 229.582 187.34 229.086 192.001C227.335 208.4 235.969 217.183 207.908 225.211C207.371 225.547 193.989 228.31 193.452 228.592C180.697 230.704 181.973 231.549 173.044 234.085C167.425 235.044 164.208 238.216 158.588 238.732C135.127 240.861 110.688 238.887 87.1599 238.31C75.7927 238.042 75.6803 235.775 63.3503 231.549C62.8018 231.335 55.3896 227.968 54.8469 227.746C47.0815 222.128 44.2177 221.408 36.9898 214.648L33.3446 212.012C23.1795 201.093 18.5391 192.908 13.1544 178.299C5.40267 157.269 -3.70968 137.012 1.5667 114.992C4.78196 101.899 10.3955 89.411 11.265 75.8495C11.9185 65.6548 9.8295 55.326 11.2183 45.232C13.9492 25.1647 30.1597 10.4026 47.2805 5.4662C64.4014 0.529853 82.415 3.29984 99.8976 6.1369C108.435 7.53867 118.431 11.2812 126.886 8.28314C137.279 4.60771 146.014 0.026828 157.23 0C161.804 0 166.467 0.549974 170.651 2.6828C175.727 5.23146 179.754 9.85929 183.879 14.0847C195.392 25.9427 208.522 35.5471 220.286 47.0831C232.05 58.6192 242.717 72.6301 247.047 89.686C249.165 98.0228 249.684 106.789 249.912 115.468C250.233 127.326 249.9 139.72 245.057 150.197Z" fill="#047857"/>
<path d="M172.457 31.0563V203.577C172.457 207.574 170.86 211.406 168.017 214.232C165.173 217.058 161.317 218.645 157.296 218.645H82.1599C78.1388 218.645 74.2824 217.058 71.439 214.232C68.5957 211.406 66.9983 207.574 66.9983 203.577V31.0563C66.9972 29.0769 67.3885 27.1167 68.15 25.2876C68.9114 23.4586 70.028 21.7965 71.436 20.3965C72.844 18.9964 74.5158 17.8858 76.3558 17.1281C78.1959 16.3703 80.1681 15.9803 82.1599 15.9803H157.296C159.288 15.9803 161.26 16.3703 163.1 17.1281C164.94 17.8858 166.612 18.9964 168.02 20.3965C169.428 21.7965 170.544 23.4586 171.306 25.2876C172.067 27.1167 172.459 29.0769 172.457 31.0563Z" fill="#047857"/>
<path d="M155.714 18.5408H83.7329C75.6364 18.5408 69.073 25.0636 69.073 33.1099V201.203C69.073 209.249 75.6364 215.772 83.7329 215.772H155.714C163.811 215.772 170.374 209.249 170.374 201.203V33.1099C170.374 25.0636 163.811 18.5408 155.714 18.5408Z" fill="#473F47"/>
<path d="M167.619 34.7578V197.527C167.581 201.217 166.07 204.741 163.418 207.324C160.766 209.907 157.191 211.337 153.478 211.301H86.0376C83.5739 211.309 81.1505 210.68 79.0052 209.476C76.8541 208.296 75.0593 206.566 73.8065 204.465C72.5537 202.364 71.8884 199.969 71.8794 197.527V34.7578C71.9198 31.0656 73.4339 27.5404 76.0889 24.9574C78.7438 22.3743 82.2033 21.0885 85.9185 21.1268H91.6682H97.3981L98.6736 21.1268C100.158 21.1268 100.799 21.1268 101.65 21.1268C103.35 21.1268 102.925 21.1268 104.201 21.1268C105.051 21.1268 105.864 21.1266 106.752 21.1268L134.813 20.9831C136.607 20.9945 137.364 20.9831 139.065 20.9831C140.488 20.9831 139.065 20.9831 141.673 20.9831L142.449 20.9831H153.504C157.131 20.9752 160.624 22.3411 163.274 24.8028C164.647 26.0771 165.741 27.6185 166.488 29.3312C167.236 31.0438 167.621 32.8909 167.619 34.7578Z" fill="white"/>
<path opacity="0.31" d="M124.192 131.696H85.0001C84.3191 131.696 83.7671 132.244 83.7671 132.921V132.93C83.7671 133.606 84.3191 134.155 85.0001 134.155H124.192C124.873 134.155 125.425 133.606 125.425 132.93V132.921C125.425 132.244 124.873 131.696 124.192 131.696Z" fill="#047857"/>
<path opacity="0.31" d="M124.192 137.704H85.0001C84.3191 137.704 83.7671 138.253 83.7671 138.93V138.938C83.7671 139.615 84.3191 140.163 85.0001 140.163H124.192C124.873 140.163 125.425 139.615 125.425 138.938V138.93C125.425 138.253 124.873 137.704 124.192 137.704Z" fill="#047857"/>
<path opacity="0.18" d="M172.457 109.563H66.9897V116.146H172.457V109.563Z" fill="#047857"/>
<path d="M148.818 125.603H85.7569C84.6579 125.603 83.7671 126.488 83.7671 127.58C83.7671 128.672 84.6579 129.558 85.7569 129.558H148.818C149.917 129.558 150.808 128.672 150.808 127.58C150.808 126.488 149.917 125.603 148.818 125.603Z" fill="#047857"/>
<path opacity="0.31" d="M124.192 152.375H85.0001C84.3191 152.375 83.7671 152.923 83.7671 153.6V153.608C83.7671 154.285 84.3191 154.834 85.0001 154.834H124.192C124.873 154.834 125.425 154.285 125.425 153.608V153.6C125.425 152.923 124.873 152.375 124.192 152.375Z" fill="#047857"/>
<path opacity="0.31" d="M124.192 158.383H85.0001C84.3191 158.383 83.7671 158.932 83.7671 159.608V159.617C83.7671 160.294 84.3191 160.842 85.0001 160.842H124.192C124.873 160.842 125.425 160.294 125.425 159.617V159.608C125.425 158.932 124.873 158.383 124.192 158.383Z" fill="#047857"/>
<path d="M148.818 146.273H85.7569C84.6579 146.273 83.7671 147.159 83.7671 148.251C83.7671 149.343 84.6579 150.228 85.7569 150.228H148.818C149.917 150.228 150.808 149.343 150.808 148.251C150.808 147.159 149.917 146.273 148.818 146.273Z" fill="#047857"/>
<path opacity="0.31" d="M124.192 173.045H85.0001C84.3191 173.045 83.7671 173.594 83.7671 174.27V174.279C83.7671 174.956 84.3191 175.504 85.0001 175.504H124.192C124.873 175.504 125.425 174.956 125.425 174.279V174.27C125.425 173.594 124.873 173.045 124.192 173.045Z" fill="#047857"/>
<path opacity="0.31" d="M124.192 179.062H85.0001C84.3191 179.062 83.7671 179.611 83.7671 180.287V180.296C83.7671 180.973 84.3191 181.521 85.0001 181.521H124.192C124.873 181.521 125.425 180.973 125.425 180.296V180.287C125.425 179.611 124.873 179.062 124.192 179.062Z" fill="#047857"/>
<path d="M148.818 166.952H85.7569C84.6579 166.952 83.7671 167.837 83.7671 168.93C83.7671 170.022 84.6579 170.907 85.7569 170.907H148.818C149.917 170.907 150.808 170.022 150.808 168.93C150.808 167.837 149.917 166.952 148.818 166.952Z" fill="#047857"/>
<path opacity="0.18" d="M106.071 58.369V75.5747C106.071 77.8303 105.172 79.994 103.57 81.5921C101.969 83.1902 99.7951 84.0925 97.5255 84.1014H66.9983V49.8423H97.5255C99.7951 49.8512 101.969 50.7535 103.57 52.3516C105.172 53.9497 106.071 56.1134 106.071 58.369Z" fill="#047857"/>
<path d="M96.012 45.3211H39.1922C34.4537 45.3211 30.6123 49.1387 30.6123 53.8479V71.0535C30.6123 75.7627 34.4537 79.5803 39.1922 79.5803H96.012C100.751 79.5803 104.592 75.7627 104.592 71.0535V53.8479C104.592 49.1387 100.751 45.3211 96.012 45.3211Z" fill="white"/>
<path d="M101.998 52.4958C105.412 52.4958 108.18 49.7452 108.18 46.3521C108.18 42.9591 105.412 40.2085 101.998 40.2085C98.5839 40.2085 95.8162 42.9591 95.8162 46.3521C95.8162 49.7452 98.5839 52.4958 101.998 52.4958Z" fill="#047857"/>
<path d="M87.0917 56.2648H46.9216C45.9824 56.2648 45.2209 57.0215 45.2209 57.9549V57.9634C45.2209 58.8968 45.9824 59.6535 46.9216 59.6535H87.0917C88.031 59.6535 88.7924 58.8968 88.7924 57.9634V57.9549C88.7924 57.0215 88.031 56.2648 87.0917 56.2648Z" fill="#047857"/>
<path d="M87.0917 65.2817H46.9216C45.9824 65.2817 45.2209 66.0384 45.2209 66.9718V66.9803C45.2209 67.9137 45.9824 68.6704 46.9216 68.6704H87.0917C88.031 68.6704 88.7924 67.9137 88.7924 66.9803V66.9718C88.7924 66.0384 88.031 65.2817 87.0917 65.2817Z" fill="#047857"/>
<path d="M135.163 65.0705C131.136 65.0587 127.269 66.5939 124.412 69.3386C121.556 72.0833 119.944 75.8126 119.932 79.706C119.92 83.5995 121.508 87.3382 124.347 90.0996C127.186 92.8611 131.043 94.4191 135.071 94.431V89.3248H135.011C133.022 89.3261 131.078 88.757 129.423 87.6896C127.769 86.6223 126.479 85.1045 125.717 83.3284C124.955 81.5522 124.755 79.5975 125.142 77.7114C125.529 75.8253 126.486 74.0926 127.892 72.7325C129.298 71.3724 131.09 70.4459 133.041 70.0703C134.991 69.6947 137.013 69.8868 138.851 70.6224C140.689 71.358 142.259 72.6039 143.364 74.2026C144.47 75.8014 145.059 77.681 145.059 79.6039C145.061 80.0697 145.026 80.5348 144.954 80.9954H150.295C150.334 80.5698 150.354 80.155 150.354 79.7507C150.354 77.8224 149.961 75.9129 149.198 74.1314C148.434 72.3499 147.315 70.7312 145.904 69.368C144.494 68.0047 142.819 66.9235 140.976 66.1861C139.133 65.4488 137.158 65.0697 135.163 65.0705Z" fill="#047857"/>
<path d="M152.767 180.53C152.859 178.615 153.268 176.388 151.902 174.99C151.223 174.422 150.454 173.963 149.624 173.631C148.241 172.892 147.061 171.845 146.183 170.575C145.304 169.306 144.752 167.852 144.573 166.335C144.402 164.708 144.672 163.061 144.573 161.42C144.422 158.076 142.837 154.948 140.995 152.108C139.153 149.268 137.034 146.593 135.542 143.562C135.232 142.923 135.02 142.023 135.621 141.647C136.222 141.27 137.034 141.8 137.562 142.285C143.286 147.972 149.624 153.225 156.886 156.87C159.131 157.999 161.475 158.969 163.554 160.361C167.014 162.684 169.588 166.105 171.477 169.731C173.365 173.356 174.573 177.307 175.794 181.22C176.243 182.649 176.686 184.207 176.164 185.611C176.03 186.047 175.74 186.422 175.345 186.67C174.967 186.846 174.551 186.933 174.131 186.926C168.849 187.207 163.521 187.213 158.207 187.277C156.886 187.277 155.321 187.577 154.245 186.677C152.727 185.375 152.681 182.273 152.767 180.53Z" fill="url(#paint0_linear_5793_5289)"/>
<path d="M219.744 220.766C219.14 221.07 218.529 221.374 217.926 221.629C208.505 225.883 198.309 228.205 187.911 229.657C182.298 218.499 176.402 206.758 168.583 196.906C165.957 193.6 163.279 190.75 161.651 186.866C160.43 183.961 158.677 180.181 158.368 177.1C158.073 173.8 160.659 172.116 163.24 170.19C169.061 165.837 175.811 162.672 183.046 160.903C183.666 160.68 184.352 160.665 184.983 160.861C185.525 161.162 185.951 161.616 186.197 162.155L206.43 196.371C210.901 203.926 215.378 211.492 219.107 219.387C219.317 219.855 219.56 220.304 219.744 220.766Z" fill="#047857"/>
<path d="M149.419 168.403C147.848 165.729 148.911 162.391 148.726 159.314C148.409 154.208 144.639 150.034 141.728 145.757C140.454 143.894 139.285 141.781 139.476 139.553C139.543 138.755 139.965 137.824 140.797 137.747C141.172 137.739 141.541 137.836 141.86 138.028C143.163 138.676 144.338 139.54 145.332 140.581C146.488 141.787 147.736 143.37 149.426 143.179C150.112 143.034 150.764 142.765 151.347 142.387C153.585 141.226 156.147 140.836 158.655 140.472L161.851 139.994C164.445 139.604 167.132 139.221 169.674 139.751C171.128 140.065 172.501 140.663 173.708 141.508C174.915 142.353 175.93 143.428 176.692 144.666C178.937 148.355 178.673 152.963 179.993 157.029C180.521 158.625 181.313 160.144 181.743 161.765C182.285 163.376 182.182 165.126 181.452 166.667C180.435 168.499 178.257 169.437 176.171 169.89C174.084 170.343 171.866 170.446 169.879 171.243C168.195 171.914 166.749 173.037 165.165 173.892C161.461 175.89 160.055 174.16 156.688 172.788C154.08 171.729 150.944 170.95 149.419 168.403Z" fill="url(#paint1_linear_5793_5289)"/>
<path d="M74.171 138.027C75.0999 137.505 76.191 137.322 77.2475 137.51C77.8398 137.721 78.3553 138.095 78.7306 138.586C79.1059 139.077 79.3247 139.664 79.3602 140.273C79.4188 141.483 79.143 142.686 78.5613 143.758C76.6335 147.818 73.1609 151.022 71.0152 154.973C69.6807 157.432 68.8851 160.13 68.6781 162.9C68.4668 165.785 68.5659 169.283 65.9779 170.757C64.1425 171.772 61.68 171.083 60.1879 169.627C58.6958 168.172 57.9762 166.149 57.4811 164.164C56.1403 158.634 56.0924 152.885 57.3407 147.336C58.589 141.786 61.1022 136.576 64.6971 132.084C65.2583 131.389 66.2155 130.654 66.9748 131.146C67.1742 131.322 67.3319 131.537 67.4367 131.777C67.5416 132.017 67.5912 132.277 67.5822 132.537C67.7406 134.056 66.9748 139.622 68.3282 140.618C69.8136 141.671 72.5535 138.767 74.171 138.027Z" fill="url(#paint2_linear_5793_5289)"/>
<path d="M65.5947 227.563L66.7104 218.946C66.1493 223.287 65.6013 227.627 65.0401 231.974V232.133C64.4195 231.929 63.8056 231.706 63.1916 231.495C53.381 227.812 44.6663 221.761 36.9551 214.836L36.5986 214.517C38.2359 208.019 40.1109 201.566 41.9859 195.139C44.9436 184.984 47.2675 173.329 54.3184 165.287C55.4606 164.011 57.6195 164.393 59.2832 164.968C60.9469 165.542 62.7558 166.244 64.4592 166.883C65.5582 167.225 66.5367 167.858 67.2848 168.708C67.9912 169.666 68.0705 170.91 68.1167 172.091C68.8851 190.617 68.0415 209.173 65.5947 227.563Z" fill="#047857"/>
<rect x="96.1226" y="24.5018" width="47.619" height="10.1514" rx="5.07569" fill="#473F47" stroke="#047857" stroke-width="1.70068"/>
</g>
<defs>
<linearGradient id="paint0_linear_5793_5289" x1="135.238" y1="164.401" x2="176.375" y2="164.401" gradientUnits="userSpaceOnUse">
<stop stop-opacity="0"/>
<stop offset="0.99"/>
</linearGradient>
<linearGradient id="paint1_linear_5793_5289" x1="139.457" y1="156.27" x2="182.093" y2="156.27" gradientUnits="userSpaceOnUse">
<stop stop-color="#E5C5D5"/>
<stop offset="0.42" stop-color="#EAD4D1"/>
<stop offset="1" stop-color="#F0E9CB"/>
</linearGradient>
<linearGradient id="paint2_linear_5793_5289" x1="56.4181" y1="151.079" x2="79.3734" y2="151.079" gradientUnits="userSpaceOnUse">
<stop stop-color="#E5C5D5"/>
<stop offset="0.42" stop-color="#EAD4D1"/>
<stop offset="1" stop-color="#F0E9CB"/>
</linearGradient>
<clipPath id="clip0_5793_5289">
<rect width="250" height="240" fill="white"/>
</clipPath>
</defs>
</svg>
