<svg width="250" height="212" viewBox="0 0 250 212" fill="none" xmlns="http://www.w3.org/2000/svg">
<g clip-path="url(#clip0_6185_16157)">
<path opacity="0.24" d="M247.262 75.187C243.596 97.228 242.263 119.594 243.284 141.914C244.026 158.496 245.118 177.672 232.847 188.869C219.452 201.104 198.582 196.429 180.463 197.261C156.339 198.367 133.684 210.584 109.546 211.038C93.76 211.348 78.3424 206.57 63.6664 200.771C45.0303 193.4 26.5651 183.902 13.6016 168.619C7.43905 161.373 3.9285 154.258 2.04062 146.989C-0.382158 137.59 -0.103472 127.899 0.62471 117.152C0.777538 114.904 0.952841 112.549 1.12365 110.18C2.78678 87.8538 -5.14231 65.5139 6.4187 44.4326C17.7729 23.7558 43.1784 15.2154 66.678 13.2331C90.1776 11.2509 114.288 13.8894 137.028 7.64591C145.569 5.27707 153.848 1.67662 162.65 0.480961C170.821 -0.624796 179.128 0.377577 187.277 1.67662C200.169 3.7353 213.168 6.55363 224.585 12.8915C236.003 19.2294 245.766 29.5228 248.858 42.1896C251.452 52.964 249.083 64.2508 247.262 75.187Z" fill="#047857"/>
<path d="M243.213 115.215C243.111 115.66 242.904 116.074 242.61 116.424C242.442 116.622 242.227 116.777 241.985 116.873C241.136 117.201 240.219 116.662 239.459 116.145C237.783 115.057 236.171 113.873 234.632 112.598C233.733 111.816 232.573 110.8 232.537 109.618C232.508 109.176 232.63 108.737 232.883 108.373C233.177 107.95 233.571 107.606 234.03 107.371C234.488 107.136 234.997 107.017 235.513 107.025C236.539 107.036 237.548 107.291 238.457 107.766C239.928 108.404 241.209 109.412 242.174 110.693C242.658 111.33 243.001 112.062 243.18 112.842C243.359 113.621 243.37 114.43 243.213 115.215Z" fill="#047857"/>
<path d="M242.61 116.424C242.442 116.622 242.227 116.777 241.985 116.873C241.136 117.201 240.219 116.662 239.459 116.145C237.783 115.057 236.171 113.873 234.632 112.598C233.733 111.816 232.573 110.8 232.537 109.618C233.155 109.022 233.98 108.688 234.839 108.688C235.869 108.702 236.881 108.956 237.796 109.43C239.265 110.074 240.545 111.081 241.518 112.356C242.382 113.525 242.772 114.978 242.61 116.424Z" fill="url(#paint0_linear_6185_16157)"/>
<path d="M1.85197 118.019C1.66318 118.365 1.85197 117.637 1.85197 118.019V118.019Z" fill="url(#paint1_linear_6185_16157)"/>
<path d="M93.8815 78.2166C92.8117 80.2438 89.6068 80.0146 88.2089 81.7856C87.6021 82.5452 87.4447 83.5836 87.3099 84.5545C86.6896 89.0854 86.0468 93.6028 85.4085 98.1202C87.1571 99.1945 88.973 100.368 89.872 102.224C90.771 104.081 90.2001 106.719 88.2628 107.398C86.1682 108.072 84.2488 106.166 82.3789 105.006C80.1989 103.622 76.7557 103.469 75.5241 105.753C76.7557 106.481 78.0188 107.258 78.8324 108.45C79.646 109.641 79.8887 111.353 79.0032 112.495C77.7087 114.104 75.178 113.583 73.2587 112.787C71.3393 111.992 69.0379 111.142 67.3748 112.392C68.667 113.389 69.7448 114.636 70.5437 116.06C71.0247 116.891 71.3708 117.961 70.8359 118.757C70.301 119.552 69.1233 119.552 68.1389 119.377C63.59 118.532 59.4682 115.484 54.9013 115.277C54.6244 115.259 54.3466 115.259 54.0697 115.277C49.3456 115.417 45.4529 118.757 41.385 121.179C41.2247 121.281 41.0581 121.373 40.8861 121.453C37.7947 123.266 34.4449 124.597 30.9522 125.4C29.1318 125.818 27.3158 125.521 25.5358 126.056C23.5086 126.663 21.85 127.962 20.2048 129.293C13.6692 134.633 7.02112 140.134 2.04072 146.989C-0.382056 137.59 -0.103369 127.899 0.624812 117.152C1.81597 116.635 2.7689 116.217 2.87229 116.149C7.577 113.345 12.2952 110.552 17.0269 107.771C17.3743 107.533 17.7607 107.358 18.1686 107.254C19.4856 107.029 20.488 108.274 21.1802 109.452C23.4996 106.076 26.8214 103.411 30.233 101.163C34.0043 98.6371 37.9688 96.4211 41.9199 94.1871C45.5518 92.1284 49.2017 90.0877 52.8381 88.0246C56.8836 85.7771 60.9875 83.4577 65.3655 81.8665C69.1053 80.518 73.0339 79.6864 76.7018 78.1447C80.4416 76.6029 83.0711 75.133 87.0402 74.4768C88.582 74.2341 91.0856 73.9059 92.4072 74.7015C93.7287 75.4971 94.5917 76.8276 93.8815 78.2166Z" fill="url(#paint2_linear_6185_16157)"/>
<path d="M58.4253 113.034C58.1466 114.104 56.7442 114.504 55.5845 114.644C55.4377 114.69 55.3022 114.767 55.1862 114.868C55.0702 114.969 54.9763 115.093 54.9102 115.232C54.6333 115.215 54.3555 115.215 54.0787 115.232C49.3545 115.372 45.4618 118.712 41.3939 121.134C41.2337 121.236 41.067 121.328 40.895 121.409C40.5309 120.235 40.5489 116.878 43.0211 109.16C43.4706 107.811 43.974 106.013 44.3696 104.71C44.6002 103.847 44.9385 103.016 45.3764 102.238C46.9221 99.8436 49.303 98.11 52.0559 97.374C52.3046 97.2746 52.5711 97.2277 52.8387 97.2362C53.1064 97.2447 53.3694 97.3085 53.6112 97.4235C54.1326 97.7336 54.2 98.4438 54.0292 99.0012C53.8584 99.5586 53.4898 100.053 53.301 100.61C52.5234 102.701 54.2 104.795 55.4991 106.647C56.5727 108.139 57.4617 109.756 58.1466 111.461C58.4007 111.944 58.4981 112.494 58.4253 113.034Z" fill="url(#paint3_linear_6185_16157)"/>
<path d="M98.3116 87.8331L84.1516 70.9159C83.3406 69.947 81.8976 69.8189 80.9287 70.63L45.4571 100.32C44.4881 101.131 44.3601 102.574 45.1711 103.543L59.3311 120.461C60.1421 121.43 61.5851 121.558 62.5541 120.746L98.0257 91.0561C98.9946 90.245 99.1227 88.802 98.3116 87.8331Z" fill="#047857"/>
<path d="M98.3116 87.8331L84.1516 70.9159C83.3406 69.947 81.8976 69.8189 80.9287 70.63L45.4571 100.32C44.4881 101.131 44.3601 102.574 45.1711 103.543L59.3311 120.461C60.1421 121.43 61.5851 121.558 62.5541 120.746L98.0257 91.0561C98.9946 90.245 99.1227 88.802 98.3116 87.8331Z" fill="url(#paint4_linear_6185_16157)"/>
<path d="M95.5129 89.0266L82.2964 73.2365C81.5714 72.3704 80.2815 72.2559 79.4153 72.9809L48.9486 98.4822C48.0824 99.2072 47.968 100.497 48.6929 101.363L61.9095 117.153C62.6345 118.019 63.9244 118.134 64.7906 117.409L95.2573 91.9076C96.1235 91.1826 96.2379 89.8927 95.5129 89.0266Z" fill="#FFFBFF"/>
<path d="M24.5514 96.8841C26.3799 95.1714 28.3598 93.6278 30.4668 92.2723C32.747 90.9451 35.1276 89.7984 37.5868 88.8426C42.2256 86.9143 46.8688 84.977 51.6739 83.5296C53.1348 83.0801 54.6047 82.6936 56.0745 82.3025L68.7817 78.8953C69.1818 80.1674 68.494 81.5159 67.7254 82.6037C65.327 85.9981 61.9674 88.5968 58.0792 90.0653C56.978 90.4788 55.8318 90.8114 54.8968 91.5441C54.2171 92.1541 53.6134 92.8438 53.0988 93.5983C50.2895 97.1943 46.1766 99.9317 44.5584 104.197C44.0146 105.613 43.7628 107.16 42.9582 108.441C42.0592 109.848 40.6209 110.782 39.214 111.668C33.82 115.08 28.2643 118.527 22.0612 120.11C21.3285 120.36 20.5399 120.397 19.7868 120.217C19.0521 119.896 18.4205 119.378 17.9618 118.721C16.3077 116.774 14.5232 114.877 12.9814 112.841C11.4981 110.877 12.2083 109.645 13.7141 107.969C17.1251 104.082 20.7427 100.382 24.5514 96.8841Z" fill="url(#paint5_linear_6185_16157)"/>
<path d="M81.3081 95.7114L72.1438 84.358L66.4951 88.9176L75.6594 100.271L81.3081 95.7114Z" fill="#FFFBFF"/>
<path d="M243.388 148.787C238.3 141.087 231.067 135.1 223.952 129.23C222.325 127.881 220.666 126.6 218.625 125.993C216.859 125.458 215.029 125.755 213.204 125.337C209.648 124.516 206.24 123.151 203.1 121.292L202.79 121.103C198.744 118.68 194.829 115.34 190.105 115.201C189.199 115.174 188.292 115.261 187.408 115.462C183.569 116.239 179.987 118.608 176.058 119.318C175.105 119.494 173.946 119.494 173.361 118.698C172.777 117.902 173.186 116.846 173.653 116.001C174.455 114.574 175.539 113.326 176.84 112.333C175.177 111.084 172.858 111.951 170.956 112.729C169.055 113.506 166.488 114.046 165.212 112.437C164.313 111.308 164.533 109.596 165.365 108.391C166.196 107.187 167.459 106.436 168.673 105.694C167.459 103.411 163.998 103.564 161.818 104.948C159.966 106.108 158.047 108.014 155.952 107.339C154.015 106.679 153.458 104 154.325 102.166C155.193 100.332 157.022 99.1361 158.789 98.0618C158.15 93.5443 157.526 89.0269 156.887 84.496C156.766 83.5251 156.591 82.4868 155.988 81.7271C154.59 79.9292 151.385 80.1854 150.334 78.1581C149.623 76.7737 150.455 75.4612 151.785 74.6476C153.116 73.834 155.611 74.1981 157.134 74.4228C161.13 75.0791 163.742 76.549 167.5 78.0907C171.15 79.6325 175.096 80.4641 178.818 81.8125C183.196 83.4037 187.296 85.7052 191.363 87.9706C195 90.0338 198.632 92.0745 202.282 94.1332C206.246 96.3807 210.193 98.5832 213.969 101.109C217.38 103.357 220.711 106.022 223.039 109.398C223.714 108.22 224.716 106.975 226.047 107.2C226.451 107.303 226.833 107.478 227.175 107.717C231.9 110.504 236.625 113.297 241.347 116.095C241.675 116.284 242.849 117.093 243.024 117.422C242.655 127.737 242.332 138.575 243.388 148.787Z" fill="url(#paint6_linear_6185_16157)"/>
<path d="M233.391 110.958L231.274 109.843C231.175 109.776 231.056 109.746 230.937 109.758C230.83 109.796 230.742 109.873 230.69 109.973C230.324 110.627 230.083 111.344 229.979 112.086C229.291 115.187 227.877 118.079 225.853 120.528C224.72 121.898 223.349 123.224 222.954 124.946C222.558 126.668 223.21 128.43 224.275 129.787C225.341 131.145 226.824 132.156 228.267 133.055C229.71 133.954 231.238 134.853 232.474 136.076C235.841 133.873 237.693 130.007 239.1 126.236C239.172 126.038 239.315 125.787 239.549 125.832C239.646 125.861 239.73 125.923 239.787 126.007C240.893 127.301 241.536 129.005 242.934 130.003L243.455 117.997C243.491 117.745 243.457 117.489 243.356 117.255C243.199 117.032 242.981 116.858 242.727 116.756C239.854 115.254 237.116 113.508 234.542 111.538" fill="url(#paint7_linear_6185_16157)"/>
<path d="M242.314 118.019C242.314 117.637 242.52 118.365 242.314 118.019V118.019Z" fill="url(#paint8_linear_6185_16157)"/>
<path d="M210.3 118.141C210.343 118.755 210.241 119.371 210.004 119.939C209.415 121.062 207.927 121.323 206.664 121.377C205.476 121.421 204.285 121.397 203.1 121.305L202.789 121.116C198.744 118.694 194.829 115.354 190.105 115.214C189.198 115.187 188.292 115.275 187.408 115.475C186.502 114.846 185.673 114.115 184.936 113.295C183.868 112.065 183.085 110.614 182.642 109.046C182.199 107.478 182.107 105.832 182.373 104.224C183.308 98.8619 190.914 92.1284 195.265 98.4798C196.597 100.511 198.166 102.376 199.94 104.036C202.691 106.598 206.844 107.236 208.957 110.63C210.265 112.828 210.3 115.525 210.3 118.141Z" fill="url(#paint9_linear_6185_16157)"/>
<path d="M184.845 120.457L199.005 103.54C199.816 102.571 199.688 101.128 198.719 100.317L163.247 70.6267C162.278 69.8156 160.835 69.9436 160.024 70.9126L145.864 87.8298C145.053 88.7987 145.181 90.2417 146.15 91.0527L181.622 120.743C182.591 121.554 184.034 121.426 184.845 120.457Z" fill="#047857"/>
<path d="M184.845 120.457L199.005 103.54C199.816 102.571 199.688 101.128 198.719 100.317L163.247 70.6267C162.278 69.8156 160.835 69.9436 160.024 70.9126L145.864 87.8298C145.053 88.7987 145.181 90.2417 146.15 91.0527L181.622 120.743C182.591 121.554 184.034 121.426 184.845 120.457Z" fill="url(#paint10_linear_6185_16157)"/>
<path d="M182.263 117.142L195.479 101.352C196.204 100.486 196.09 99.1961 195.224 98.4711L164.757 72.9698C163.891 72.2448 162.601 72.3592 161.876 73.2254L148.659 89.0155C147.934 89.8816 148.049 91.1715 148.915 91.8965L179.382 117.398C180.248 118.123 181.538 118.008 182.263 117.142Z" fill="#FFFBFF"/>
<path d="M219.632 96.8841C217.804 95.1725 215.826 93.629 213.721 92.2723C211.439 90.9451 209.057 89.7984 206.597 88.8426C201.962 86.9143 197.315 84.977 192.51 83.5296C191.053 83.0801 189.579 82.6936 188.109 82.3025L175.402 78.8953C175.002 80.1674 175.689 81.5159 176.458 82.6037C178.856 85.9981 182.216 88.5968 186.104 90.0653C187.205 90.4788 188.352 90.8114 189.291 91.5441C189.97 92.1551 190.573 92.8447 191.089 93.5983C193.898 97.1943 198.011 99.9317 199.652 104.197C200.196 105.613 200.448 107.16 201.257 108.441C202.156 109.848 203.59 110.782 204.996 111.668C210.413 115.08 215.946 118.527 222.149 120.11C222.882 120.36 223.671 120.397 224.424 120.217C225.159 119.895 225.792 119.377 226.253 118.721C227.903 116.774 229.692 114.877 231.229 112.841C232.712 110.877 232.002 109.645 230.496 107.969C227.077 104.081 223.45 100.381 219.632 96.8841Z" fill="url(#paint11_linear_6185_16157)"/>
<path d="M168.52 100.261L177.684 88.9081L172.035 84.3485L162.871 95.7019L168.52 100.261Z" fill="#FFFBFF"/>
<path d="M99.3159 80.4101L98.3674 79.0841C100.228 77.8487 102.203 76.7951 104.265 75.9376L104.908 77.4345C102.954 78.2476 101.082 79.244 99.3159 80.4101ZM142.261 77.6682C140.294 76.8293 138.278 76.1118 136.224 75.5196L136.673 73.9554C138.792 74.5653 140.871 75.3054 142.899 76.1714L142.261 77.6682ZM110.944 75.3128L110.495 73.7396C112.626 73.1549 114.795 72.7164 116.986 72.4271L117.197 74.0453C115.086 74.323 112.997 74.7465 110.944 75.3128ZM129.971 74.1711C127.861 73.8596 125.731 73.6929 123.598 73.6722V72.0405C125.806 72.0641 128.011 72.2383 130.196 72.5619L129.971 74.1711Z" fill="#047857"/>
<path d="M233.728 110.531C233.728 110.531 224.577 125.863 223.952 129.23C223.327 132.596 229.993 137.82 231.454 137.82C232.915 137.82 241.311 116.149 241.311 116.149C241.311 116.149 239.41 112.158 233.728 110.531Z" fill="#047857"/>
<path d="M233.958 110.607C233.958 110.607 224.941 126.088 224.32 129.486C223.7 132.884 230.357 138.071 231.818 138.071C233.279 138.071 241.383 116.266 241.383 116.266C241.383 116.266 239.639 112.23 233.958 110.607Z" fill="url(#paint12_linear_6185_16157)"/>
<path opacity="0.24" d="M72.3192 103.905C77.0732 103.905 80.9271 100.051 80.9271 95.2974C80.9271 90.5434 77.0732 86.6896 72.3192 86.6896C67.5653 86.6896 63.7114 90.5434 63.7114 95.2974C63.7114 100.051 67.5653 103.905 72.3192 103.905Z" fill="#047857"/>
<path opacity="0.24" d="M172.655 103.384C177.409 103.384 181.263 99.53 181.263 94.776C181.263 90.022 177.409 86.1682 172.655 86.1682C167.901 86.1682 164.048 90.022 164.048 94.776C164.048 99.53 167.901 103.384 172.655 103.384Z" fill="#047857"/>
<rect x="83" y="117" width="51.6619" height="51.6619" rx="25.831" fill="white"/>
<path fill-rule="evenodd" clip-rule="evenodd" d="M110.551 132.65C104.931 131.7 99.5988 135.491 98.6496 141.111C97.7003 146.731 101.491 152.063 107.111 153.012C112.731 153.962 118.063 150.171 119.012 144.551C119.089 144.095 119.521 143.788 119.977 143.865C120.433 143.942 120.74 144.374 120.663 144.83C119.56 151.361 113.364 155.767 106.832 154.663C100.301 153.56 95.8953 147.364 96.9985 140.832C98.1018 134.301 104.298 129.895 110.829 130.999C111.285 131.076 111.593 131.508 111.516 131.963C111.439 132.419 111.007 132.727 110.551 132.65Z" fill="#047857"/>
<path fill-rule="evenodd" clip-rule="evenodd" d="M115.457 133.624C115.532 133.179 115.954 132.878 116.4 132.954L120.702 133.68C121.148 133.756 121.448 134.178 121.373 134.623L120.646 138.926C120.571 139.372 120.149 139.672 119.703 139.597C119.258 139.521 118.957 139.099 119.033 138.654L119.623 135.158L116.127 134.567C115.682 134.492 115.381 134.07 115.457 133.624Z" fill="#047857"/>
<path fill-rule="evenodd" clip-rule="evenodd" d="M121.276 133.983C121.497 134.294 121.424 134.727 121.112 134.948L115.793 138.73C115.481 138.952 115.049 138.879 114.827 138.567C114.606 138.256 114.679 137.824 114.991 137.602L120.31 133.82C120.622 133.598 121.054 133.671 121.276 133.983Z" fill="#047857"/>
<path d="M108.452 148.427L106.25 148.055L107.459 140.901L104.707 140.436L104.951 138.989L112.656 140.29L112.412 141.738L109.66 141.273L108.452 148.427ZM105.358 136.584L113.062 137.885L112.784 139.536L105.079 138.235L105.358 136.584Z" fill="#047857"/>
<rect x="163" y="17" width="51.6619" height="51.6619" rx="25.831" fill="white"/>
<path d="M191.803 49.001L189.651 49.598L187.711 42.6065L185.022 43.3528L184.629 41.9382L192.159 39.8485L192.551 41.2631L189.862 42.0094L191.803 49.001ZM183.977 39.5881L191.506 37.4984L191.954 39.1119L184.425 41.2016L183.977 39.5881Z" fill="#047857"/>
<path fill-rule="evenodd" clip-rule="evenodd" d="M187.011 33.8226C181.519 35.3468 178.298 41.0415 179.823 46.5334C181.347 52.0253 187.042 55.2458 192.533 53.7216C198.025 52.1974 201.246 46.5026 199.722 41.0107C199.598 40.5652 199.859 40.1038 200.304 39.9801C200.75 39.8565 201.211 40.1174 201.335 40.5629C203.107 46.9459 199.364 53.5635 192.981 55.335C186.598 57.1065 179.981 53.3642 178.209 46.9812C176.438 40.5983 180.18 33.9807 186.563 32.2091C187.008 32.0855 187.47 32.3464 187.594 32.792C187.717 33.2375 187.456 33.6989 187.011 33.8226Z" fill="#047857"/>
<path fill-rule="evenodd" clip-rule="evenodd" d="M192.24 31.7921C192.685 31.6684 193.147 31.9294 193.27 32.3749L194.24 35.8707L197.736 34.9005C198.182 34.7768 198.643 35.0378 198.767 35.4833C198.89 35.9288 198.629 36.3903 198.184 36.5139L193.881 37.708C193.436 37.8317 192.975 37.5707 192.851 37.1252L191.657 32.8227C191.533 32.3772 191.794 31.9158 192.24 31.7921Z" fill="#047857"/>
<path fill-rule="evenodd" clip-rule="evenodd" d="M197.288 30.4806C197.621 30.6688 197.739 31.0912 197.55 31.424L194.337 37.1056C194.149 37.4384 193.727 37.5557 193.394 37.3674C193.061 37.1792 192.944 36.7568 193.132 36.424L196.345 30.7425C196.533 30.4096 196.956 30.2924 197.288 30.4806Z" fill="#047857"/>
</g>
<defs>
<linearGradient id="paint0_linear_6185_16157" x1="239.446" y1="109.645" x2="235.791" y2="116.226" gradientUnits="userSpaceOnUse">
<stop stop-color="#010101" stop-opacity="0"/>
<stop offset="0.95" stop-color="#010101"/>
</linearGradient>
<linearGradient id="paint1_linear_6185_16157" x1="1.81002" y1="117.905" x2="1.81002" y2="118.116" gradientUnits="userSpaceOnUse">
<stop stop-color="#EEE1CE"/>
<stop offset="1" stop-color="#E7CBD4"/>
</linearGradient>
<linearGradient id="paint2_linear_6185_16157" x1="47.1237" y1="74.1988" x2="47.1237" y2="146.989" gradientUnits="userSpaceOnUse">
<stop stop-color="#EEE1CE"/>
<stop offset="1" stop-color="#E7CBD4"/>
</linearGradient>
<linearGradient id="paint3_linear_6185_16157" x1="29.5722" y1="113.214" x2="182.711" y2="78.4233" gradientUnits="userSpaceOnUse">
<stop stop-color="#010101" stop-opacity="0"/>
<stop offset="0.95" stop-color="#010101"/>
</linearGradient>
<linearGradient id="paint4_linear_6185_16157" x1="92.7646" y1="100.059" x2="-27.7495" y2="75.045" gradientUnits="userSpaceOnUse">
<stop stop-color="#010101" stop-opacity="0"/>
<stop offset="0.95" stop-color="#010101"/>
</linearGradient>
<linearGradient id="paint5_linear_6185_16157" x1="40.5316" y1="78.8953" x2="40.5316" y2="120.329" gradientUnits="userSpaceOnUse">
<stop stop-color="#EEE1CE"/>
<stop offset="1" stop-color="#E7CBD4"/>
</linearGradient>
<linearGradient id="paint6_linear_6185_16157" x1="196.731" y1="74.1441" x2="196.731" y2="148.787" gradientUnits="userSpaceOnUse">
<stop stop-color="#EEE1CE"/>
<stop offset="1" stop-color="#E7CBD4"/>
</linearGradient>
<linearGradient id="paint7_linear_6185_16157" x1="206.642" y1="97.7471" x2="279.977" y2="167.423" gradientUnits="userSpaceOnUse">
<stop stop-color="#010101" stop-opacity="0"/>
<stop offset="0.95" stop-color="#010101"/>
</linearGradient>
<linearGradient id="paint8_linear_6185_16157" x1="242.36" y1="117.905" x2="242.36" y2="118.116" gradientUnits="userSpaceOnUse">
<stop stop-color="#EEE1CE"/>
<stop offset="1" stop-color="#E7CBD4"/>
</linearGradient>
<linearGradient id="paint9_linear_6185_16157" x1="173.572" y1="125.805" x2="333.956" y2="16.1189" gradientUnits="userSpaceOnUse">
<stop stop-color="#010101" stop-opacity="0"/>
<stop offset="0.95" stop-color="#010101"/>
</linearGradient>
<linearGradient id="paint10_linear_6185_16157" x1="151.781" y1="106.721" x2="283.016" y2="36.555" gradientUnits="userSpaceOnUse">
<stop stop-color="#010101" stop-opacity="0"/>
<stop offset="0.95" stop-color="#010101"/>
</linearGradient>
<linearGradient id="paint11_linear_6185_16157" x1="203.665" y1="78.8953" x2="203.665" y2="120.329" gradientUnits="userSpaceOnUse">
<stop stop-color="#EEE1CE"/>
<stop offset="1" stop-color="#E7CBD4"/>
</linearGradient>
<linearGradient id="paint12_linear_6185_16157" x1="232.101" y1="116.185" x2="236.812" y2="161.337" gradientUnits="userSpaceOnUse">
<stop stop-color="#010101" stop-opacity="0"/>
<stop offset="0.95" stop-color="#010101"/>
</linearGradient>
<clipPath id="clip0_6185_16157">
<rect width="250" height="211.051" fill="white"/>
</clipPath>
</defs>
</svg>
